<svg xmlns="http://www.w3.org/2000/svg" width="800" height="300" viewBox="0 0 800 300">
  <style>
    .title { font: bold 14px sans-serif; fill: #333; }
    .axis-label { font: 11px sans-serif; fill: #666; }
    .legend-text { font: 11px sans-serif; }
  </style>
  <defs>
    <clipPath id="plotArea">
      <rect x="50" y="20" width="720" height="230"/>
    </clipPath>
  </defs>
  <!-- Background -->
  <rect width="800" height="300" fill="#e8e8e8" rx="4"/>
  <!-- Plot area background -->
  <rect x="50" y="20" width="720" height="230" fill="white" stroke="#ccc" stroke-width="0.5"/>
  <!-- Title -->
  <text x="60" y="16" class="title">Chair Stand Test (5 Repetitions)</text>
  <!-- Legend -->
  <line x1="460" y1="12" x2="480" y2="12" stroke="#800000" stroke-width="2"/>
  <text x="483" y="16" class="legend-text" fill="#800000">X</text>
  <line x1="510" y1="12" x2="530" y2="12" stroke="#7EBEC5" stroke-width="2"/>
  <text x="533" y="16" class="legend-text" fill="#7EBEC5">Y</text>
  <line x1="560" y1="12" x2="580" y2="12" stroke="#58595b" stroke-width="2"/>
  <text x="583" y="16" class="legend-text" fill="#58595b">Z</text>
  <!-- Annotation overlay: activity region -->
  <rect x="170" y="20" width="480" height="230" fill="cyan" opacity="0.2"/>
  <!-- Signal traces -->
  <g clip-path="url(#plotArea)">
    <!-- X axis signal (maroon) -->
    <polyline fill="none" stroke="#800000" stroke-width="1.2" opacity="0.85" stroke-linejoin="round"
      points="50,134 57,137 65,136 72,136 79,134 86,134 94,134 101,137 108,135 115,137 123,136 130,135 137,137 145,136 152,134 159,134 166,167 174,102 181,141 188,177 195,92 203,125 210,138 217,136 225,133 232,136 239,137 246,137 254,135 261,179 268,102 275,129 283,143 290,122 297,129 305,135 312,134 319,135 326,134 334,135 341,125 348,146 355,180 363,126 370,117 377,131 385,148 392,135 399,134 406,136 414,135 421,136 428,135 435,122 443,141 450,157 457,151 465,90 472,130 479,145 486,133 494,134 501,135 508,134 515,134 523,140 530,147 537,133 545,140 552,167 559,93 566,132 574,134 581,136 588,134 595,135 603,133 610,135 617,136 625,136 632,135 639,136 646,135 654,134 661,135 668,136 675,133 683,135 690,137 697,137 705,136 712,135 719,134 726,135 734,137 741,135 748,133 755,135 763,133 770,134"/>
    <!-- Y axis signal (teal) -->
    <polyline fill="none" stroke="#7EBEC5" stroke-width="1.2" opacity="0.85" stroke-linejoin="round"
      points="50,136 57,134 65,136 72,135 79,135 86,134 94,135 101,135 108,136 115,135 123,135 130,134 137,135 145,134 152,135 159,136 166,132 174,132 181,139 188,141 195,114 203,140 210,138 217,135 225,135 232,135 239,135 246,136 254,141 261,139 268,117 275,138 283,142 290,117 297,140 305,134 312,135 319,134 326,134 334,136 341,134 348,141 355,146 363,107 370,137 377,145 385,127 392,135 399,134 406,136 414,135 421,135 428,135 435,129 443,141 450,150 457,105 465,139 472,142 479,133 486,134 494,136 501,134 508,135 515,136 523,142 530,124 537,143 545,148 552,107 559,140 566,139 574,135 581,136 588,136 595,134 603,134 610,136 617,134 625,134 632,134 639,134 646,135 654,134 661,135 668,134 675,134 683,134 690,134 697,135 705,134 712,136 719,136 726,134 734,135 741,134 748,135 755,136 763,135 770,134"/>
    <!-- Z axis signal (gray) -->
    <polyline fill="none" stroke="#58595b" stroke-width="1.2" opacity="0.85" stroke-linejoin="round"
      points="50,135 57,135 65,134 72,136 79,136 86,137 94,136 101,137 108,136 115,135 123,133 130,134 137,135 145,135 152,134 159,137 166,116 174,156 181,138 188,78 195,170 203,152 210,133 217,136 225,135 232,133 239,137 246,135 254,146 261,91 268,160 275,140 283,106 290,153 297,142 305,134 312,135 319,137 326,134 334,134 341,144 348,148 355,84 363,141 370,141 377,134 385,135 392,135 399,134 406,134 414,136 421,134 428,135 435,154 443,144 450,102 457,127 465,151 472,148 479,129 486,133 494,135 501,136 508,136 515,136 523,128 530,141 537,141 545,123 552,108 559,162 566,147 574,136 581,135 588,134 595,135 603,136 610,135 617,136 625,137 632,136 639,134 646,135 654,136 661,134 668,134 675,136 683,133 690,136 697,136 705,135 712,134 719,135 726,135 734,135 741,136 748,136 755,135 763,135 770,134"/>
  </g>
  <!-- Time axis -->
  <line x1="50" y1="250" x2="770" y2="250" stroke="#999" stroke-width="0.5"/>
  <text x="50" y="268" class="axis-label">0s</text>
  <text x="230" y="268" class="axis-label">5s</text>
  <text x="410" y="268" class="axis-label">10s</text>
  <text x="590" y="268" class="axis-label">15s</text>
  <text x="755" y="268" class="axis-label">20s</text>
  <text x="380" y="285" class="axis-label">Time (seconds)</text>
  <!-- Tick marks -->
  <line x1="50" y1="250" x2="50" y2="254" stroke="#999"/>
  <line x1="230" y1="250" x2="230" y2="254" stroke="#999"/>
  <line x1="410" y1="250" x2="410" y2="254" stroke="#999"/>
  <line x1="590" y1="250" x2="590" y2="254" stroke="#999"/>
  <line x1="770" y1="250" x2="770" y2="254" stroke="#999"/>
</svg>