<svg xmlns="http://www.w3.org/2000/svg" width="800" height="300" viewBox="0 0 800 300">
  <style>
    .title { font: bold 14px sans-serif; fill: #333; }
    .axis-label { font: 11px sans-serif; fill: #666; }
    .legend-text { font: 11px sans-serif; }
  </style>
  <defs>
    <clipPath id="plotArea">
      <rect x="50" y="20" width="720" height="230"/>
    </clipPath>
  </defs>
  <!-- Background -->
  <rect width="800" height="300" fill="#e8e8e8" rx="4"/>
  <!-- Plot area background -->
  <rect x="50" y="20" width="720" height="230" fill="white" stroke="#ccc" stroke-width="0.5"/>
  <!-- Title -->
  <text x="60" y="16" class="title">3-Meter Walk Test</text>
  <!-- Legend -->
  <line x1="460" y1="12" x2="480" y2="12" stroke="#800000" stroke-width="2"/>
  <text x="483" y="16" class="legend-text" fill="#800000">X</text>
  <line x1="510" y1="12" x2="530" y2="12" stroke="#7EBEC5" stroke-width="2"/>
  <text x="533" y="16" class="legend-text" fill="#7EBEC5">Y</text>
  <line x1="560" y1="12" x2="580" y2="12" stroke="#58595b" stroke-width="2"/>
  <text x="583" y="16" class="legend-text" fill="#58595b">Z</text>
  <!-- Annotation overlay: activity region -->
  <rect x="194" y="20" width="432" height="230" fill="magenta" opacity="0.2"/>
  <!-- Signal traces -->
  <g clip-path="url(#plotArea)">
    <!-- X axis signal (maroon) -->
    <polyline fill="none" stroke="#800000" stroke-width="1.2" opacity="0.85" stroke-linejoin="round"
      points="50,137 57,136 65,135 72,136 79,134 86,137 94,135 101,136 108,134 115,136 123,136 130,136 137,136 145,137 152,135 159,136 166,135 174,137 181,136 188,135 195,134 203,136 210,136 217,134 225,137 232,134 239,134 246,136 254,137 261,144 268,126 275,115 283,130 290,151 297,180 305,94 312,102 319,136 326,167 334,190 341,89 348,93 355,124 363,158 370,185 377,89 385,105 392,144 399,170 406,189 414,81 421,93 428,129 435,170 443,181 450,87 457,112 465,144 472,175 479,181 486,83 494,104 501,134 508,175 515,174 523,86 530,110 537,146 545,175 552,168 559,72 566,97 574,139 581,176 588,163 595,93 603,116 610,145 617,152 625,144 632,127 639,133 646,137 654,136 661,136 668,135 675,135 683,136 690,137 697,136 705,136 712,135 719,137 726,135 734,137 741,134 748,135 755,133 763,136 770,135"/>
    <!-- Y axis signal (teal) -->
    <polyline fill="none" stroke="#7EBEC5" stroke-width="1.2" opacity="0.85" stroke-linejoin="round"
      points="50,133 57,135 65,136 72,133 79,135 86,134 94,137 101,136 108,133 115,134 123,137 130,135 137,135 145,136 152,136 159,136 166,136 174,136 181,134 188,136 195,136 203,135 210,136 217,134 225,135 232,134 239,134 246,138 254,136 261,133 268,124 275,139 283,151 290,147 297,122 305,99 312,139 319,158 326,144 334,114 341,106 348,151 355,162 363,146 370,112 377,102 385,149 392,156 399,148 406,107 414,113 421,153 428,160 435,149 443,109 450,110 457,149 465,153 472,142 479,106 486,116 494,159 501,163 508,149 515,100 523,114 530,155 537,152 545,142 552,99 559,122 566,158 574,160 581,144 588,100 595,124 603,150 610,141 617,136 625,126 632,131 639,139 646,137 654,137 661,136 668,134 675,135 683,134 690,136 697,136 705,134 712,135 719,135 726,134 734,137 741,137 748,136 755,136 763,136 770,135"/>
    <!-- Z axis signal (gray) -->
    <polyline fill="none" stroke="#58595b" stroke-width="1.2" opacity="0.85" stroke-linejoin="round"
      points="50,134 57,136 65,134 72,136 79,134 86,136 94,135 101,135 108,137 115,134 123,136 130,135 137,134 145,135 152,134 159,136 166,135 174,136 181,135 188,136 195,133 203,136 210,135 217,135 225,135 232,134 239,135 246,134 254,135 261,129 268,142 275,152 283,127 290,122 297,99 305,161 312,190 319,126 326,112 334,95 341,157 348,178 355,113 363,111 370,96 377,165 385,186 392,120 399,114 406,100 414,162 421,177 428,110 435,109 443,100 450,170 457,186 465,120 472,115 479,103 486,171 494,171 501,112 508,107 515,108 523,173 530,181 537,116 545,107 552,106 559,168 566,166 574,113 581,105 588,117 595,173 603,157 610,125 617,123 625,131 632,141 639,139 646,133 654,135 661,135 668,134 675,133 683,134 690,136 697,135 705,135 712,135 719,134 726,133 734,136 741,135 748,133 755,135 763,135 770,136"/>
  </g>
  <!-- Time axis -->
  <line x1="50" y1="250" x2="770" y2="250" stroke="#999" stroke-width="0.5"/>
  <text x="50" y="268" class="axis-label">0s</text>
  <text x="194" y="268" class="axis-label">2s</text>
  <text x="338" y="268" class="axis-label">4s</text>
  <text x="482" y="268" class="axis-label">6s</text>
  <text x="626" y="268" class="axis-label">8s</text>
  <text x="755" y="268" class="axis-label">10s</text>
  <text x="380" y="285" class="axis-label">Time (seconds)</text>
  <!-- Tick marks -->
  <line x1="50" y1="250" x2="50" y2="254" stroke="#999"/>
  <line x1="194" y1="250" x2="194" y2="254" stroke="#999"/>
  <line x1="338" y1="250" x2="338" y2="254" stroke="#999"/>
  <line x1="482" y1="250" x2="482" y2="254" stroke="#999"/>
  <line x1="626" y1="250" x2="626" y2="254" stroke="#999"/>
  <line x1="770" y1="250" x2="770" y2="254" stroke="#999"/>
</svg>