<svg xmlns="http://www.w3.org/2000/svg" width="800" height="300" viewBox="0 0 800 300">
  <style>
    .title { font: bold 14px sans-serif; fill: #333; }
    .legend-text { font: 11px sans-serif; }
    .phase-label { font: italic 10px sans-serif; fill: #555; }
  </style>
  <defs>
    <clipPath id="tug-clip"><rect x="50" y="20" width="720" height="230"/></clipPath>
  </defs>
  <rect width="800" height="300" fill="#f5f5f5" rx="4"/>
  <rect x="50" y="20" width="720" height="230" fill="white" stroke="#ddd" stroke-width="0.5"/>
  <text x="400" y="15" text-anchor="middle" class="title">Timed Up and Go (TUG)</text>
  <line x1="560" y1="272" x2="575" y2="272" stroke="#d62728" stroke-width="1.5"/>
  <text x="578" y="276" class="legend-text">X</text>
  <line x1="600" y1="272" x2="615" y2="272" stroke="#1f77b4" stroke-width="1.5"/>
  <text x="618" y="276" class="legend-text">Y</text>
  <line x1="640" y1="272" x2="655" y2="272" stroke="#2ca02c" stroke-width="1.5"/>
  <text x="658" y="276" class="legend-text">Z</text>
  <rect x="120" y="20" width="455" height="230" fill="yellow" opacity="0.10"/>
  <polyline clip-path="url(#tug-clip)" fill="none" stroke="#d62728" stroke-width="1" opacity="0.9" points="50,123 52,127 54,123 56,127 58,127 60,127 62,124 64,125 66,126 68,123 70,126 72,126 74,124 76,124 78,123 80,126 82,127 84,126 86,124 88,124 90,126 92,124 94,126 96,125 98,126 100,123 102,124 104,123 106,126 108,126 110,125 112,124 114,123 116,126 118,124 120,123 125,127 126,124 127,125 128,121 129,118 130,118 131,115 132,119 133,116 134,111 135,111 136,107 137,109 138,109 139,107 140,104 141,103 142,108 143,110 144,112 145,112 146,111 147,117 148,117 149,119 150,118 151,121 152,123 153,126 154,123 155,121 160,125 161,119 162,123 163,121 164,122 165,128 166,134 167,128 168,124 169,122 170,108 171,128 172,127 173,129 174,128 175,127 176,125 177,122 178,116 179,121 180,126 181,129 182,130 183,130 184,121 185,120 186,120 187,137 188,124 189,140 190,129 191,136 192,120 193,120 194,123 195,119 196,126 197,134 198,127 199,126 200,125 201,122 202,110 203,126 204,131 205,129 206,126 207,125 208,121 209,120 210,123 211,123 212,126 213,130 214,131 215,121 216,120 217,122 218,125 219,124 220,129 221,130 222,127 223,122 224,126 225,121 226,123 227,128 228,130 229,128 230,129 231,125 232,120 233,121 234,126 235,140 236,127 237,132 238,127 239,119 240,119 241,121 242,125 243,126 244,128 245,132 246,123 247,122 248,120 249,120 250,125 251,129 252,142 253,130 254,123 255,123 256,122 257,118 258,126 259,127 260,130 261,128 262,127 263,121 264,120 265,121 266,127 267,126 268,131 269,127 270,124 271,121 272,122 273,122 274,124 275,141 276,131 277,125 278,127 279,120 280,120 281,121 282,127 283,131 284,136 285,127 286,123 287,117 288,122 289,122 290,126 291,126 292,134 293,126 294,121 295,123 296,120 297,122 298,128 299,133 300,132 301,113 302,122 303,122 304,121 305,123 306,127 307,128 308,130 309,130 310,131 315,122 316,122 317,124 318,123 319,124 320,127 321,126 322,128 323,125 324,124 325,129 326,126 327,128 328,129 329,131 330,133 331,129 332,133 333,132 334,133 335,131 336,133 337,130 338,127 339,125 340,129 341,123 342,123 343,124 344,122 345,122 346,124 347,119 348,121 349,117 350,117 351,116 352,121 353,116 354,122 355,122 356,119 357,121 358,120 359,124 360,121 361,123 362,123 363,124 364,124 365,127 366,125 367,126 368,128 369,127 370,125 375,124 376,117 377,122 378,123 379,123 380,126 381,130 382,126 383,123 384,120 385,109 386,121 387,124 388,134 389,129 390,129 391,127 392,120 393,119 394,122 395,129 396,128 397,127 398,130 399,124 400,118 401,121 402,126 403,127 404,130 405,133 406,124 407,123 408,119 409,122 410,121 411,127 412,133 413,130 414,124 415,126 416,119 417,119 418,127 419,132 420,127 421,126 422,128 423,121 424,117 425,121 426,123 427,125 428,133 429,127 430,125 431,121 432,123 433,112 434,122 435,129 436,119 437,129 438,125 439,122 440,118 441,119 442,130 443,128 444,127 445,125 446,125 447,120 448,119 449,126 450,126 451,126 452,143 453,137 454,121 455,118 456,119 457,123 458,128 459,129 460,141 461,122 462,121 463,135 464,123 465,122 466,127 467,128 468,128 469,124 470,124 471,122 472,128 473,127 474,130 475,130 476,132 477,124 478,120 479,120 480,123 481,123 482,126 483,129 484,129 485,122 486,122 487,119 488,118 489,127 490,131 491,130 492,129 493,124 494,125 495,120 496,123 497,129 498,130 499,127 500,119 501,124 502,118 503,119 504,124 505,128 506,128 507,130 508,129 509,123 510,120 511,125 512,124 513,127 514,131 515,132 516,126 517,124 518,124 519,121 520,125 521,127 522,132 523,128 524,128 525,120 526,116 527,119 528,124 529,130 530,130 535,125 536,124 537,122 538,121 539,122 540,120 541,116 542,121 543,118 544,112 545,116 546,110 547,113 548,111 549,111 550,111 551,109 552,109 553,105 554,108 555,109 556,111 557,111 558,112 559,116 560,113 561,116 562,115 563,117 564,118 565,119 566,123 567,125 568,125 569,124 570,125 575,127 577,126 579,124 581,124 583,126 585,123 587,127 589,123 591,123 593,123 595,124 597,126 599,123 601,124 603,124 605,125 607,127 609,123 611,126 613,124 615,126 617,126 619,125 621,126 623,124 625,126 627,123 629,126 631,124 633,127 635,126 637,123 639,126 641,123 643,123 645,127 647,124 649,125 651,123 653,126 655,126 657,123 659,127 661,126 663,124 665,125 667,126 669,123 671,123 673,125 675,127 677,123 679,126 681,124 683,124 685,123 687,125 689,124 691,127 693,123 695,124 697,124 699,127 701,126 703,123 705,126 707,127 709,123 711,126 713,127 715,127 717,123 719,127 721,127 723,124 725,123 727,127 729,127 731,126 733,127 735,124 737,126 739,124 741,126 743,126 745,126 747,124 749,127 751,125 753,126 755,126 757,124 759,124 761,124 763,125 765,123 767,124 769,125"/>
  <polyline clip-path="url(#tug-clip)" fill="none" stroke="#1f77b4" stroke-width="1" opacity="0.9" points="50,133 52,136 54,134 56,136 58,134 60,134 62,134 64,136 66,137 68,135 70,137 72,136 74,134 76,133 78,137 80,135 82,133 84,133 86,133 88,137 90,136 92,137 94,135 96,136 98,134 100,133 102,137 104,136 106,133 108,133 110,133 112,137 114,133 116,136 118,133 120,135 125,135 126,137 127,138 128,137 129,139 130,140 131,139 132,143 133,143 134,143 135,144 136,146 137,147 138,148 139,148 140,149 141,149 142,149 143,149 144,146 145,146 146,144 147,142 148,143 149,139 150,140 151,137 152,137 153,135 154,135 155,137 160,140 161,141 162,133 163,133 164,129 165,131 166,136 167,134 168,134 169,134 170,134 171,132 172,131 173,130 174,135 175,138 176,137 177,137 178,130 179,137 180,132 181,136 182,135 183,139 184,140 185,139 186,130 187,133 188,135 189,137 190,137 191,135 192,134 193,136 194,136 195,132 196,132 197,136 198,135 199,139 200,136 201,137 202,136 203,132 204,135 205,135 206,134 207,137 208,138 209,133 210,130 211,134 212,136 213,134 214,137 215,136 216,139 217,135 218,133 219,131 220,136 221,136 222,137 223,134 224,138 225,135 226,136 227,132 228,129 229,135 230,139 231,138 232,133 233,130 234,131 235,132 236,137 237,135 238,134 239,140 240,135 241,135 242,131 243,130 244,136 245,135 246,136 247,135 248,134 249,138 250,133 251,130 252,134 253,136 254,141 255,134 256,134 257,131 258,134 259,135 260,131 261,137 262,141 263,137 264,138 265,129 266,130 267,134 268,137 269,135 270,137 271,135 272,136 273,131 274,128 275,134 276,135 277,138 278,137 279,137 280,135 281,137 282,133 283,134 284,135 285,136 286,141 287,140 288,134 289,133 290,133 291,135 292,134 293,138 294,136 295,137 296,136 297,131 298,133 299,136 300,136 301,140 302,133 303,135 304,138 305,135 306,132 307,135 308,135 309,138 310,136 315,138 316,137 317,137 318,139 319,137 320,138 321,140 322,138 323,139 324,141 325,138 326,141 327,139 328,141 329,140 330,141 331,141 332,142 333,143 334,142 335,146 336,145 337,146 338,145 339,144 340,144 341,144 342,143 343,144 344,146 345,144 346,143 347,144 348,143 349,142 350,145 351,145 352,141 353,142 354,144 355,140 356,141 357,139 358,139 359,141 360,140 361,139 362,140 363,136 364,140 365,136 366,138 367,136 368,138 369,138 370,136 375,136 376,137 377,137 378,133 379,132 380,135 381,136 382,139 383,137 384,139 385,139 386,136 387,132 388,131 389,137 390,139 391,140 392,136 393,131 394,135 395,137 396,134 397,131 398,139 399,141 400,138 401,135 402,130 403,131 404,137 405,137 406,137 407,134 408,136 409,133 410,131 411,128 412,133 413,136 414,140 415,133 416,135 417,134 418,132 419,132 420,134 421,136 422,139 423,142 424,134 425,130 426,131 427,133 428,137 429,134 430,136 431,136 432,138 433,131 434,130 435,136 436,136 437,138 438,139 439,134 440,137 441,133 442,131 443,134 444,135 445,138 446,137 447,137 448,130 449,132 450,134 451,134 452,134 453,138 454,139 455,138 456,131 457,128 458,129 459,133 460,138 461,137 462,136 463,134 464,134 465,135 466,130 467,132 468,140 469,138 470,138 471,132 472,131 473,134 474,131 475,133 476,134 477,140 478,141 479,137 480,133 481,130 482,135 483,134 484,135 485,136 486,139 487,138 488,135 489,128 490,129 491,138 492,142 493,136 494,134 495,131 496,133 497,134 498,134 499,134 500,139 501,142 502,137 503,133 504,129 505,132 506,134 507,133 508,134 509,139 510,141 511,134 512,129 513,132 514,134 515,138 516,138 517,138 518,134 519,138 520,132 521,128 522,132 523,135 524,139 525,140 526,135 527,130 528,132 529,137 530,135 535,135 536,134 537,136 538,138 539,139 540,140 541,139 542,139 543,140 544,142 545,145 546,145 547,145 548,145 549,145 550,148 551,147 552,146 553,147 554,147 555,146 556,145 557,145 558,143 559,143 560,140 561,140 562,138 563,139 564,138 565,136 566,136 567,136 568,137 569,135 570,134 575,137 577,135 579,133 581,134 583,134 585,137 587,137 589,135 591,133 593,135 595,133 597,137 599,136 601,136 603,133 605,135 607,133 609,133 611,136 613,135 615,137 617,135 619,134 621,137 623,137 625,134 627,136 629,134 631,133 633,137 635,136 637,136 639,135 641,136 643,137 645,134 647,135 649,135 651,135 653,133 655,135 657,134 659,133 661,136 663,134 665,135 667,137 669,137 671,134 673,137 675,133 677,137 679,136 681,137 683,135 685,135 687,133 689,135 691,137 693,134 695,133 697,134 699,135 701,136 703,136 705,133 707,133 709,133 711,134 713,134 715,133 717,135 719,134 721,135 723,136 725,135 727,137 729,136 731,134 733,135 735,136 737,136 739,133 741,137 743,137 745,137 747,133 749,136 751,133 753,137 755,133 757,136 759,135 761,135 763,137 765,133 767,134 769,136"/>
  <polyline clip-path="url(#tug-clip)" fill="none" stroke="#2ca02c" stroke-width="1" opacity="0.9" points="50,140 52,141 54,140 56,142 58,143 60,143 62,140 64,144 66,144 68,140 70,140 72,142 74,140 76,142 78,142 80,142 82,141 84,140 86,142 88,143 90,144 92,143 94,141 96,140 98,140 100,142 102,142 104,144 106,144 108,140 110,144 112,142 114,142 116,141 118,143 120,143 125,141 126,142 127,141 128,145 129,144 130,146 131,143 132,142 133,141 134,138 135,140 136,135 137,132 138,130 139,130 140,129 141,128 142,131 143,130 144,133 145,137 146,138 147,143 148,143 149,141 150,145 151,143 152,145 153,143 154,141 155,142 160,148 161,148 162,140 163,141 164,136 165,142 166,138 167,139 168,147 169,145 170,141 171,143 172,142 173,141 174,135 175,143 176,145 177,147 178,145 179,142 180,142 181,139 182,129 183,149 184,143 185,143 186,148 187,149 188,142 189,137 190,136 191,138 192,140 193,142 194,147 195,147 196,142 197,142 198,140 199,136 200,136 201,141 202,143 203,143 204,144 205,143 206,145 207,141 208,136 209,142 210,145 211,144 212,143 213,146 214,147 215,141 216,139 217,142 218,141 219,143 220,146 221,148 222,146 223,141 224,133 225,140 226,139 227,139 228,146 229,148 230,141 231,142 232,147 233,139 234,139 235,141 236,140 237,134 238,144 239,150 240,147 241,140 242,137 243,141 244,141 245,139 246,142 247,150 248,146 249,131 250,141 251,143 252,135 253,138 254,145 255,145 256,146 257,142 258,147 259,143 260,136 261,137 262,144 263,142 264,141 265,150 266,145 267,141 268,138 269,141 270,142 271,138 272,140 273,148 274,147 275,140 276,142 277,140 278,137 279,136 280,140 281,145 282,146 283,141 284,144 285,143 286,138 287,139 288,143 289,144 290,143 291,145 292,148 293,141 294,136 295,141 296,143 297,139 298,140 299,149 300,148 301,140 302,139 303,141 304,141 305,140 306,141 307,145 308,148 309,141 310,145 315,141 316,144 317,145 318,144 319,142 320,142 321,143 322,140 323,141 324,145 325,140 326,145 327,142 328,142 329,139 330,138 331,140 332,139 333,141 334,140 335,138 336,136 337,139 338,136 339,135 340,138 341,134 342,134 343,136 344,139 345,134 346,136 347,135 348,138 349,141 350,139 351,138 352,142 353,142 354,143 355,140 356,141 357,143 358,142 359,144 360,140 361,140 362,146 363,141 364,141 365,146 366,142 367,141 368,145 369,140 370,144 375,147 376,145 377,141 378,136 379,136 380,139 381,129 382,141 383,145 384,148 385,140 386,138 387,144 388,138 389,139 390,143 391,148 392,145 393,145 394,145 395,142 396,136 397,134 398,141 399,145 400,140 401,146 402,150 403,143 404,128 405,141 406,138 407,141 408,142 409,144 410,145 411,145 412,141 413,139 414,141 415,134 416,139 417,147 418,144 419,146 420,145 421,144 422,139 423,138 424,142 425,141 426,143 427,145 428,148 429,154 430,141 431,137 432,139 433,140 434,142 435,147 436,147 437,146 438,142 439,142 440,141 441,140 442,141 443,143 444,146 445,144 446,145 447,144 448,132 449,136 450,141 451,144 452,140 453,144 454,149 455,147 456,147 457,140 458,137 459,137 460,139 461,145 462,150 463,148 464,142 465,139 466,140 467,140 468,135 469,139 470,148 471,147 472,146 473,147 474,139 475,138 476,137 477,143 478,141 479,143 480,145 481,148 482,142 483,137 484,138 485,140 486,140 487,145 488,148 489,144 490,140 491,139 492,142 493,137 494,139 495,143 496,148 497,148 498,142 499,144 500,141 501,134 502,136 503,141 504,143 505,145 506,145 507,147 508,144 509,137 510,137 511,140 512,139 513,145 514,144 515,147 516,141 517,143 518,140 519,139 520,134 521,140 522,148 523,148 524,150 525,144 526,143 527,145 528,140 529,141 530,145 535,144 536,143 537,144 538,141 539,144 540,142 541,140 542,144 543,142 544,138 545,138 546,137 547,136 548,138 549,131 550,130 551,131 552,135 553,131 554,131 555,131 556,136 557,134 558,140 559,137 560,138 561,140 562,140 563,143 564,142 565,143 566,141 567,141 568,143 569,140 570,142 575,141 577,144 579,140 581,143 583,142 585,144 587,140 589,144 591,144 593,143 595,143 597,141 599,142 601,141 603,141 605,143 607,140 609,143 611,141 613,140 615,141 617,140 619,140 621,141 623,144 625,144 627,140 629,142 631,143 633,140 635,141 637,144 639,142 641,143 643,141 645,140 647,140 649,143 651,140 653,144 655,142 657,144 659,142 661,140 663,144 665,144 667,142 669,142 671,140 673,144 675,141 677,141 679,142 681,144 683,144 685,140 687,142 689,144 691,143 693,144 695,143 697,144 699,144 701,140 703,144 705,140 707,142 709,143 711,141 713,142 715,144 717,141 719,141 721,142 723,140 725,141 727,143 729,140 731,141 733,144 735,140 737,142 739,140 741,141 743,142 745,141 747,144 749,140 751,140 753,144 755,141 757,144 759,140 761,140 763,142 765,142 767,142 769,141"/>
  <line x1="50" y1="250" x2="770" y2="250" stroke="#999" stroke-width="0.5"/>
  <text x="85" y="265" text-anchor="middle" class="phase-label">rest</text>
  <text x="140" y="265" text-anchor="middle" class="phase-label">rise</text>
  <text x="235" y="265" text-anchor="middle" class="phase-label">walk</text>
  <text x="342" y="265" text-anchor="middle" class="phase-label">turn</text>
  <text x="452" y="265" text-anchor="middle" class="phase-label">walk</text>
  <text x="552" y="265" text-anchor="middle" class="phase-label">sit</text>
  <text x="680" y="265" text-anchor="middle" class="phase-label">rest</text>
</svg>