<svg xmlns="http://www.w3.org/2000/svg" width="800" height="300" viewBox="0 0 800 300">
  <style>
    .title { font: bold 14px sans-serif; fill: #333; }
    .axis-label { font: 11px sans-serif; fill: #666; }
    .legend-text { font: 11px sans-serif; }
    .phase-label { font: italic 10px sans-serif; fill: #555; }
  </style>
  <defs>
    <clipPath id="cs-plot"><rect x="50" y="20" width="720" height="230"/></clipPath>
  </defs>
  <rect width="800" height="300" fill="#f5f5f5" rx="4"/>
  <rect x="50" y="20" width="720" height="230" fill="white" stroke="#ddd" stroke-width="0.5"/>
  <text x="60" y="16" class="title">Chair Stand Test — 5 Repetitions</text>
  <!-- Legend -->
  <line x1="480" y1="12" x2="500" y2="12" stroke="#800000" stroke-width="2"/>
  <text x="503" y="16" class="legend-text" fill="#800000">X (ant-post)</text>
  <line x1="580" y1="12" x2="600" y2="12" stroke="#7EBEC5" stroke-width="2"/>
  <text x="603" y="16" class="legend-text" fill="#7EBEC5">Y (med-lat)</text>
  <line x1="670" y1="12" x2="690" y2="12" stroke="#58595b" stroke-width="2"/>
  <text x="693" y="16" class="legend-text" fill="#58595b">Z (vertical)</text>
  <!-- Activity overlay — tight around reps 1-5 -->
  <rect x="135" y="20" width="530" height="230" fill="cyan" opacity="0.15"/>
  <line x1="135" y1="20" x2="135" y2="250" stroke="cyan" stroke-width="1.5" stroke-dasharray="4,3" opacity="0.6"/>
  <line x1="665" y1="20" x2="665" y2="250" stroke="cyan" stroke-width="1.5" stroke-dasharray="4,3" opacity="0.6"/>
  <!-- Baseline reference -->
  <line x1="50" y1="135" x2="770" y2="135" stroke="#eee" stroke-width="0.5"/>
  <!-- Phase labels -->
  <text x="75" y="265" class="phase-label">rest</text>
  <text x="165" y="265" class="phase-label">rep 1</text>
  <text x="275" y="265" class="phase-label">rep 2</text>
  <text x="385" y="265" class="phase-label">rep 3</text>
  <text x="495" y="265" class="phase-label">rep 4</text>
  <text x="605" y="265" class="phase-label">rep 5</text>
  <text x="700" y="265" class="phase-label">rest</text>
  <!-- Signal traces -->
  <g clip-path="url(#cs-plot)">
    <polyline fill="none" stroke="#800000" stroke-width="1.3" opacity="0.85" stroke-linejoin="round"
      points="50,136 53,134 56,137 59,133 62,133 65,135 68,136 71,136 74,137 77,133 80,136 83,137 86,136 89,135 92,134 95,134 98,136 101,134 104,136 107,136 110,137 113,136 116,134 119,134 122,137 125,135 128,134 140,135 142,127 144,119 146,111 148,103 150,96 152,89 154,85 156,81 158,79 160,79 162,79 164,79 166,80 168,80 170,79 172,77 174,74 176,69 178,65 180,60 182,56 184,52 186,50 188,49 190,51 192,54 194,59 196,65 198,71 200,79 202,86 204,93 206,99 208,104 210,109 212,113 214,118 216,122 218,128 220,135 222,135 225,138 228,133 231,136 234,132 237,137 240,134 243,133 246,133 250,135 252,127 254,118 256,110 258,103 260,96 262,90 264,86 266,84 268,83 270,82 272,82 274,82 276,82 278,80 280,78 282,75 284,70 286,66 288,60 290,56 292,52 294,49 296,48 298,49 300,51 302,56 304,61 306,68 308,75 310,82 312,89 314,95 316,100 318,104 320,108 322,112 324,117 326,122 328,128 330,135 332,133 335,136 338,136 341,135 344,137 347,133 350,136 353,135 356,133 360,135 362,127 364,118 366,110 368,103 370,97 372,92 374,89 376,87 378,86 380,85 382,85 384,84 386,82 388,80 390,76 392,72 394,67 396,61 398,56 400,52 402,48 404,47 406,47 408,49 410,53 412,58 414,65 416,72 418,79 420,85 422,91 424,96 426,100 428,104 430,108 432,111 434,116 436,121 438,127 440,135 442,138 445,136 448,136 451,137 454,132 457,132 460,133 463,134 466,134 470,135 472,126 474,118 476,110 478,104 480,98 482,94 484,91 486,90 488,88 490,88 492,86 494,85 496,82 498,78 500,73 502,68 504,62 506,57 508,52 510,48 512,46 514,46 516,48 518,51 520,56 522,62 524,69 526,75 528,82 530,88 532,92 534,97 536,100 538,103 540,106 542,110 544,114 546,120 548,127 550,135 552,138 555,133 558,137 561,137 564,134 567,135 570,136 573,135 576,133 580,135 582,126 584,118 586,111 588,105 590,100 592,96 594,94 596,92 598,91 600,89 602,87 604,84 606,80 608,75 610,70 612,64 614,58 616,53 618,49 620,46 622,45 624,46 626,49 628,54 630,60 632,66 634,73 636,79 638,84 640,89 642,93 644,96 646,99 648,102 650,105 652,108 654,113 656,119 658,127 660,135 660,135 663,134 666,135 669,137 672,135 675,134 678,134 681,134 684,136 687,134 690,137 693,137 696,134 699,134 702,137 705,133 708,136 711,133 714,134 717,136 720,134 723,134 726,134 729,136 732,133 735,134 738,135 741,136 744,134 747,135 750,135 753,135 756,137 759,135 762,136 765,136 768,136"/>
    <polyline fill="none" stroke="#7EBEC5" stroke-width="1.3" opacity="0.85" stroke-linejoin="round"
      points="50,133 53,136 56,133 59,134 62,134 65,134 68,133 71,134 74,134 77,136 80,136 83,135 86,135 89,136 92,134 95,133 98,134 101,134 104,135 107,134 110,136 113,136 116,133 119,134 122,134 125,137 128,134 140,135 142,139 144,143 146,148 148,153 150,158 152,161 154,164 156,165 158,164 160,163 162,161 164,160 166,160 168,161 170,163 172,167 174,172 176,177 178,182 180,185 182,187 184,186 186,184 188,180 190,174 192,169 194,164 196,160 198,157 200,156 202,156 204,156 206,157 208,157 210,155 212,153 214,149 216,145 218,140 220,135 222,134 225,135 228,134 231,134 234,134 237,134 240,136 243,135 246,136 250,135 252,139 254,144 256,149 258,154 260,157 262,160 264,161 266,161 268,160 270,159 272,158 274,159 276,160 278,163 280,167 282,173 284,178 286,182 288,186 290,187 292,186 294,184 296,179 298,174 300,169 302,164 304,161 306,159 308,158 310,158 312,159 314,160 316,160 318,159 320,157 322,154 324,149 326,144 328,139 330,135 332,135 335,135 338,135 341,135 344,136 347,134 350,135 353,134 356,135 360,135 362,140 364,145 366,149 368,153 370,156 372,158 374,158 376,157 378,157 380,157 382,157 384,159 386,163 388,168 390,173 392,178 394,183 396,186 398,187 400,186 402,183 404,179 406,174 408,169 410,164 412,161 414,160 416,159 418,160 420,162 422,163 424,164 426,163 428,161 430,158 432,153 434,148 436,143 438,139 440,135 442,135 445,134 448,133 451,136 454,134 457,134 460,135 463,136 466,136 470,135 472,140 474,145 476,149 478,152 480,154 482,155 484,155 486,154 488,155 490,156 492,159 494,163 496,168 498,173 500,178 502,183 504,185 506,186 508,185 510,182 512,178 514,173 516,168 518,164 520,162 522,161 524,161 526,163 528,165 530,166 532,167 534,167 536,165 538,161 540,157 542,152 544,147 546,142 548,138 550,135 552,136 555,134 558,133 561,133 564,136 567,135 570,136 573,135 576,135 580,135 582,140 584,144 586,148 588,150 590,151 592,152 594,152 596,153 598,155 600,158 602,162 604,167 606,173 608,178 610,182 612,185 614,185 616,184 618,181 620,177 622,172 624,167 626,164 628,162 630,162 632,163 634,165 636,167 638,169 640,170 642,170 644,168 646,165 648,160 650,155 652,150 654,145 656,141 658,138 660,134 660,135 663,136 666,136 669,135 672,134 675,135 678,136 681,137 684,135 687,133 690,135 693,135 696,134 699,136 702,137 705,133 708,133 711,134 714,135 717,133 720,135 723,136 726,136 729,135 732,134 735,134 738,136 741,133 744,133 747,133 750,136 753,134 756,137 759,135 762,136 765,136 768,136"/>
    <polyline fill="none" stroke="#58595b" stroke-width="1.3" opacity="0.85" stroke-linejoin="round"
      points="50,134 53,136 56,135 59,135 62,136 65,135 68,136 71,134 74,133 77,135 80,135 83,135 86,136 89,133 92,133 95,134 98,134 101,137 104,134 107,135 110,135 113,136 116,134 119,137 122,136 125,135 128,135 140,135 142,143 144,151 146,157 148,162 150,165 152,166 154,167 156,168 158,168 160,170 162,174 164,178 166,185 168,192 170,200 172,207 174,213 176,216 178,218 180,216 182,213 184,207 186,200 188,193 190,186 192,181 194,177 196,175 198,174 200,175 202,176 204,176 206,176 208,174 210,170 212,165 214,158 216,150 218,142 220,135 222,137 225,136 228,134 231,137 234,133 237,135 240,135 243,134 246,136 250,135 252,143 254,150 256,156 258,160 260,163 262,165 264,165 266,166 268,168 270,171 272,175 274,181 276,188 278,195 280,203 282,210 284,215 286,217 288,217 290,215 292,210 294,203 296,196 298,190 300,184 302,179 304,176 306,175 308,176 310,177 312,178 314,178 316,178 318,175 320,171 322,165 324,158 326,150 328,142 330,135 332,134 335,135 338,133 341,135 344,135 347,136 350,135 353,135 356,136 360,135 362,143 364,150 366,155 368,159 370,162 372,163 374,164 376,165 378,168 380,172 382,177 384,183 386,191 388,199 390,206 392,212 394,216 396,217 398,216 400,212 402,207 404,200 406,193 408,187 410,182 412,178 414,176 416,176 418,178 420,179 422,180 424,181 426,179 428,176 430,171 432,165 434,157 436,149 438,142 440,135 442,136 445,133 448,135 451,133 454,136 457,133 460,134 463,136 466,135 470,135 472,143 474,149 476,154 478,158 480,160 482,162 484,163 486,165 488,168 490,173 492,179 494,186 496,194 498,202 500,208 502,213 504,216 506,216 508,214 510,209 512,203 514,196 516,190 518,184 520,180 522,178 524,177 526,178 528,180 530,182 532,183 534,183 536,181 538,177 540,171 542,164 544,157 546,149 548,142 550,135 552,136 555,136 558,134 561,136 564,136 567,134 570,135 573,134 576,133 580,135 582,143 584,149 586,153 588,157 590,159 592,160 594,162 596,165 598,169 600,175 602,182 604,189 606,197 608,204 610,210 612,214 614,216 616,215 618,211 620,206 622,200 624,193 626,187 628,182 630,179 632,178 634,179 636,180 638,183 640,184 642,185 644,185 646,182 648,177 650,171 652,164 654,156 656,148 658,141 660,134 660,135 663,134 666,135 669,135 672,137 675,136 678,136 681,135 684,135 687,134 690,135 693,137 696,137 699,135 702,136 705,135 708,135 711,133 714,134 717,134 720,136 723,137 726,135 729,135 732,134 735,134 738,136 741,136 744,134 747,134 750,135 753,133 756,136 759,134 762,134 765,134 768,134"/>
  </g>
  <!-- Time axis -->
  <line x1="50" y1="250" x2="770" y2="250" stroke="#ccc" stroke-width="0.5"/>
  <text x="380" y="290" class="axis-label">Time</text>
</svg>