<svg xmlns="http://www.w3.org/2000/svg" width="800" height="300" viewBox="0 0 800 300">
  <style>
    .title { font: bold 14px sans-serif; fill: #333; }
    .axis-label { font: 11px sans-serif; fill: #666; }
    .legend-text { font: 11px sans-serif; }
    .phase-label { font: 9px sans-serif; fill: #555; }
  </style>
  <defs>
    <clipPath id="plotArea">
      <rect x="50" y="20" width="720" height="230"/>
    </clipPath>
  </defs>
  <!-- Background -->
  <rect width="800" height="300" fill="#e8e8e8" rx="4"/>
  <!-- Plot area background -->
  <rect x="50" y="20" width="720" height="230" fill="white" stroke="#ccc" stroke-width="0.5"/>
  <!-- Title -->
  <text x="60" y="16" class="title">Timed Up and Go (TUG)</text>
  <!-- Legend -->
  <line x1="460" y1="12" x2="480" y2="12" stroke="#800000" stroke-width="2"/>
  <text x="483" y="16" class="legend-text" fill="#800000">X</text>
  <line x1="510" y1="12" x2="530" y2="12" stroke="#7EBEC5" stroke-width="2"/>
  <text x="533" y="16" class="legend-text" fill="#7EBEC5">Y</text>
  <line x1="560" y1="12" x2="580" y2="12" stroke="#58595b" stroke-width="2"/>
  <text x="583" y="16" class="legend-text" fill="#58595b">Z</text>
  <!-- Annotation overlay: activity region -->
  <rect x="146" y="20" width="528" height="230" fill="#CCCC00" opacity="0.2"/>
  <!-- Phase labels -->
  <text x="160" y="38" class="phase-label">Stand</text>
  <text x="240" y="38" class="phase-label">Walk</text>
  <text x="380" y="38" class="phase-label">Turn</text>
  <text x="470" y="38" class="phase-label">Walk back</text>
  <text x="610" y="38" class="phase-label">Sit</text>
  <!-- Signal traces -->
  <g clip-path="url(#plotArea)">
    <!-- X axis signal (maroon) -->
    <polyline fill="none" stroke="#800000" stroke-width="1.2" opacity="0.85" stroke-linejoin="round"
      points="50,134 57,136 65,136 72,134 79,137 86,135 94,135 101,135 108,136 115,134 123,135 130,134 137,137 145,133 152,147 159,136 166,200 174,80 181,93 188,118 195,196 203,165 210,124 217,135 225,110 232,150 239,171 246,95 254,129 261,167 268,113 275,126 283,161 290,133 297,104 305,140 312,163 319,102 326,144 334,173 341,101 348,125 355,162 363,122 370,127 377,137 385,146 392,135 399,144 406,120 414,121 421,143 428,132 435,117 443,115 450,150 457,143 465,109 472,144 479,172 486,95 494,132 501,169 508,107 515,131 523,161 530,132 537,105 545,145 552,160 559,100 566,144 574,176 581,133 588,115 595,165 603,158 610,157 617,50 625,125 632,158 639,136 646,145 654,137 661,137 668,137 675,133 683,137 690,135 697,135 705,133 712,137 719,136 726,134 734,137 741,136 748,137 755,133 763,136 770,135"/>
    <!-- Y axis signal (teal) -->
    <polyline fill="none" stroke="#7EBEC5" stroke-width="1.2" opacity="0.85" stroke-linejoin="round"
      points="50,134 57,137 65,133 72,134 79,136 86,135 94,137 101,136 108,134 115,134 123,136 130,134 137,136 145,135 152,140 159,145 166,90 174,136 181,136 188,150 195,170 203,112 210,123 217,134 225,147 232,145 239,118 246,136 254,153 261,133 268,117 275,151 283,136 290,110 297,152 305,147 312,115 319,137 326,143 334,127 341,121 348,156 355,141 363,132 370,144 377,136 385,141 392,132 399,123 406,142 414,133 421,142 428,137 435,114 443,154 450,146 457,110 465,149 472,144 479,114 486,137 494,154 501,133 508,116 515,152 523,140 530,108 537,152 545,146 552,118 559,141 566,147 574,125 581,135 588,161 595,130 603,127 610,115 617,121 625,169 632,153 639,141 646,125 654,134 661,133 668,135 675,137 683,134 690,134 697,133 705,137 712,137 719,134 726,136 734,137 741,137 748,134 755,135 763,133 770,134"/>
    <!-- Z axis signal (gray) -->
    <polyline fill="none" stroke="#58595b" stroke-width="1.2" opacity="0.85" stroke-linejoin="round"
      points="50,136 57,136 65,136 72,136 79,134 86,136 94,136 101,136 108,133 115,135 123,136 130,135 137,134 145,136 152,134 159,105 166,115 174,179 181,179 188,136 195,63 203,136 210,133 217,137 225,163 232,123 239,122 246,176 254,122 261,107 268,161 275,137 283,118 290,149 297,155 305,113 312,114 319,171 326,125 334,112 341,174 348,127 355,104 363,136 370,139 377,141 385,115 392,137 399,135 406,145 414,138 421,137 428,121 435,159 443,139 450,109 457,133 465,158 472,124 479,118 486,173 494,121 501,105 508,164 515,137 523,118 530,145 537,155 545,112 552,115 559,169 566,123 574,117 581,142 588,132 595,112 603,87 610,152 617,214 625,113 632,141 639,110 646,132 654,136 661,134 668,136 675,133 683,136 690,136 697,137 705,135 712,135 719,134 726,133 734,137 741,135 748,134 755,136 763,133 770,136"/>
  </g>
  <!-- Time axis -->
  <line x1="50" y1="250" x2="770" y2="250" stroke="#999" stroke-width="0.5"/>
  <text x="50" y="268" class="axis-label">0s</text>
  <text x="194" y="268" class="axis-label">3s</text>
  <text x="338" y="268" class="axis-label">6s</text>
  <text x="482" y="268" class="axis-label">9s</text>
  <text x="626" y="268" class="axis-label">12s</text>
  <text x="755" y="268" class="axis-label">15s</text>
  <text x="380" y="285" class="axis-label">Time (seconds)</text>
  <!-- Tick marks -->
  <line x1="50" y1="250" x2="50" y2="254" stroke="#999"/>
  <line x1="194" y1="250" x2="194" y2="254" stroke="#999"/>
  <line x1="338" y1="250" x2="338" y2="254" stroke="#999"/>
  <line x1="482" y1="250" x2="482" y2="254" stroke="#999"/>
  <line x1="626" y1="250" x2="626" y2="254" stroke="#999"/>
  <line x1="770" y1="250" x2="770" y2="254" stroke="#999"/>
</svg>