<svg xmlns="http://www.w3.org/2000/svg" width="800" height="300" viewBox="0 0 800 300">
  <style>
    .title { font: bold 14px sans-serif; fill: #333; }
    .axis-label { font: 11px sans-serif; fill: #666; }
    .legend-text { font: 11px sans-serif; }
    .phase-label { font: italic 10px sans-serif; fill: #555; }
  </style>
  <defs>
    <clipPath id="w3-plot"><rect x="50" y="20" width="720" height="230"/></clipPath>
  </defs>
  <rect width="800" height="300" fill="#f5f5f5" rx="4"/>
  <rect x="50" y="20" width="720" height="230" fill="white" stroke="#ddd" stroke-width="0.5"/>
  <text x="60" y="16" class="title">3-Meter Walk Test — Two Walks with Turnaround</text>
  <line x1="510" y1="12" x2="530" y2="12" stroke="#800000" stroke-width="2"/>
  <text x="533" y="16" class="legend-text" fill="#800000">X</text>
  <line x1="560" y1="12" x2="580" y2="12" stroke="#7EBEC5" stroke-width="2"/>
  <text x="583" y="16" class="legend-text" fill="#7EBEC5">Y</text>
  <line x1="620" y1="12" x2="640" y2="12" stroke="#58595b" stroke-width="2"/>
  <text x="643" y="16" class="legend-text" fill="#58595b">Z</text>
  <!-- Activity overlay — tight around both walks + turn -->
  <rect x="133" y="20" width="433" height="230" fill="magenta" opacity="0.12"/>
  <line x1="133" y1="20" x2="133" y2="250" stroke="magenta" stroke-width="1.5" stroke-dasharray="4,3" opacity="0.6"/>
  <line x1="566" y1="20" x2="566" y2="250" stroke="magenta" stroke-width="1.5" stroke-dasharray="4,3" opacity="0.6"/>
  <line x1="50" y1="135" x2="770" y2="135" stroke="#eee" stroke-width="0.5"/>
  <text x="75" y="265" class="phase-label">rest</text>
  <text x="195" y="265" class="phase-label">walk out</text>
  <text x="330" y="265" class="phase-label">turn</text>
  <text x="440" y="265" class="phase-label">walk back</text>
  <text x="605" y="265" class="phase-label">rest</text>
  <g clip-path="url(#w3-plot)">
    <polyline fill="none" stroke="#800000" stroke-width="1.3" opacity="0.85" stroke-linejoin="round"
      points="50,133 53,134 56,133 59,133 62,134 65,136 68,135 71,136 74,134 77,135 80,134 83,136 86,134 89,136 92,135 95,137 98,137 101,136 104,134 107,135 110,133 113,134 116,136 119,133 122,136 125,134 128,135 131,134 134,133 135,135 137,133 139,134 141,142 143,137 145,124 147,131 149,147 151,147 153,113 155,128 157,146 159,162 161,105 163,123 165,141 167,179 169,102 171,115 173,134 175,193 177,108 179,102 181,128 183,197 185,125 187,92 189,124 191,187 193,147 195,85 197,122 199,173 201,169 203,81 205,119 207,158 209,186 211,83 213,116 215,145 217,197 219,91 221,109 223,134 225,201 227,106 229,101 231,128 233,197 235,125 237,92 239,124 241,187 243,147 245,85 247,122 249,173 251,169 253,81 255,119 257,158 259,186 261,83 263,116 265,145 267,197 269,91 271,110 273,134 275,193 277,110 279,108 281,129 283,179 285,129 287,109 289,129 291,163 293,141 295,113 297,130 299,148 301,146 303,121 305,132 307,139 309,142 311,130 313,134 315,132 318,131 321,131 324,132 327,128 330,124 333,123 336,121 339,119 342,123 345,123 348,119 351,120 354,118 357,120 360,120 363,121 366,121 369,121 372,125 375,126 378,131 381,133 384,131 387,133 390,135 392,133 394,135 396,140 398,140 400,124 402,131 404,137 406,154 408,129 410,117 412,132 414,151 416,156 418,106 420,122 422,138 424,174 426,129 428,98 430,129 432,159 434,177 436,93 438,113 440,136 442,183 444,137 446,89 448,127 450,154 452,182 454,98 456,109 458,134 460,180 462,147 464,87 466,125 468,150 470,185 472,104 474,104 476,132 478,175 480,156 482,87 484,123 486,145 488,187 490,111 492,100 494,131 496,170 498,164 500,87 502,120 504,142 506,187 508,119 510,96 512,130 514,165 516,171 518,89 520,117 522,138 524,183 526,129 528,99 530,130 532,154 534,165 536,107 538,121 540,136 542,160 544,136 546,115 548,132 550,142 552,149 554,126 556,130 558,135 560,140 562,136 564,134 565,136 568,134 571,135 574,135 577,135 580,136 583,135 586,133 589,135 592,133 595,136 598,134 601,134 604,134 607,136 610,136 613,134 616,135 619,134 622,134 625,135 628,137 631,133 634,136 637,134 640,134 643,134 646,134 649,135 652,135 655,133 658,135 661,136 664,135 667,136 670,134 673,135 676,135 679,133 682,136 685,136 688,136 691,134 694,135 697,135 700,134 703,134 706,137 709,136 712,135 715,135 718,137 721,134 724,136 727,134 730,136 733,134 736,134 739,133 742,135 745,133 748,136 751,135 754,134 757,135 760,137 763,136 766,136 769,134"/>
    <polyline fill="none" stroke="#7EBEC5" stroke-width="1.3" opacity="0.85" stroke-linejoin="round"
      points="50,134 53,136 56,135 59,134 62,136 65,134 68,136 71,133 74,135 77,136 80,136 83,134 86,136 89,136 92,137 95,133 98,135 101,136 104,135 107,134 110,135 113,137 116,134 119,135 122,134 125,133 128,133 131,135 134,137 135,135 137,135 139,133 141,133 143,142 145,135 147,130 149,128 151,147 153,139 155,128 157,122 159,148 161,146 163,126 165,117 167,145 169,157 171,124 173,114 175,137 177,168 179,125 181,113 183,126 185,174 187,129 189,115 191,117 193,173 195,136 197,117 199,111 201,169 203,145 205,119 207,108 209,160 211,155 213,120 215,108 217,149 219,164 221,122 223,110 225,137 227,170 229,125 231,113 233,126 235,174 237,129 239,115 241,117 243,173 245,136 247,117 249,111 251,169 253,145 255,119 257,108 259,160 261,155 263,120 265,108 267,149 269,164 271,122 273,112 275,137 277,165 279,127 281,118 283,129 285,161 287,132 289,124 291,126 293,154 295,136 297,128 299,127 301,145 303,138 305,131 307,130 309,138 311,137 313,134 315,134 318,137 321,138 324,138 327,138 330,141 333,139 336,142 339,142 342,141 345,144 348,140 351,145 354,142 357,145 360,144 363,140 366,143 369,141 372,141 375,136 378,139 381,135 384,134 387,136 390,135 392,135 394,133 396,133 398,140 400,138 402,131 404,129 406,136 408,148 410,132 412,127 414,125 416,149 418,146 420,125 422,121 424,133 426,162 428,133 430,120 432,117 434,155 436,156 438,121 440,117 442,129 444,168 446,136 448,119 450,115 452,151 454,160 456,123 458,117 460,125 462,167 464,140 466,119 468,115 470,146 472,163 474,124 476,118 478,122 480,165 482,144 484,119 486,115 488,142 490,165 492,126 494,118 496,119 498,162 500,148 502,120 504,115 506,137 508,167 510,129 512,119 514,118 516,159 518,152 520,120 522,116 524,133 526,164 528,133 530,122 532,121 534,149 536,149 538,127 540,124 542,132 544,151 546,135 548,129 550,128 552,140 554,141 556,132 558,132 560,134 562,137 564,135 565,136 568,136 571,136 574,134 577,136 580,134 583,136 586,134 589,136 592,137 595,133 598,137 601,134 604,137 607,134 610,137 613,133 616,135 619,134 622,134 625,133 628,135 631,137 634,136 637,136 640,134 643,133 646,136 649,133 652,134 655,136 658,133 661,136 664,133 667,135 670,136 673,133 676,134 679,135 682,135 685,135 688,135 691,134 694,135 697,135 700,137 703,135 706,136 709,134 712,133 715,136 718,136 721,137 724,134 727,137 730,136 733,134 736,137 739,134 742,134 745,135 748,134 751,134 754,136 757,136 760,136 763,136 766,137 769,136"/>
    <polyline fill="none" stroke="#58595b" stroke-width="1.3" opacity="0.85" stroke-linejoin="round"
      points="50,136 53,134 56,134 59,135 62,134 65,133 68,135 71,134 74,136 77,133 80,136 83,135 86,135 89,137 92,134 95,136 98,134 101,136 104,133 107,136 110,133 113,136 116,133 119,137 122,137 125,135 128,137 131,133 134,137 135,135 137,133 139,133 141,143 143,137 145,125 147,133 149,142 151,146 153,125 155,114 157,155 159,155 161,113 163,120 165,145 167,159 169,134 171,91 173,144 175,185 177,117 179,98 181,140 183,166 185,154 187,89 189,113 191,193 193,143 195,91 197,126 199,159 201,166 203,110 205,89 207,175 209,172 211,96 213,111 215,151 217,169 219,134 221,80 223,145 225,191 227,115 229,97 231,140 233,166 235,154 237,89 239,113 241,193 243,143 245,91 247,126 249,159 251,166 253,110 255,89 257,175 259,172 261,96 263,111 265,151 267,169 269,134 271,82 273,145 275,185 277,118 279,105 281,139 283,157 285,148 287,106 289,122 291,166 293,139 295,115 297,132 299,144 301,145 303,128 305,125 307,142 309,140 311,132 313,134 315,131 318,138 321,137 324,136 327,140 330,139 333,140 336,144 339,140 342,145 345,146 348,146 351,149 354,147 357,141 360,149 363,145 366,143 369,145 372,143 375,140 378,142 381,141 384,135 387,139 390,135 392,133 394,134 396,141 398,138 400,127 402,130 404,138 406,147 408,139 410,114 412,127 414,159 416,145 418,118 420,120 422,136 424,164 426,147 428,94 430,120 432,173 434,152 436,118 438,108 440,129 442,176 444,151 446,88 448,119 450,169 452,154 454,126 456,103 458,124 460,180 462,152 464,91 466,118 468,161 470,158 472,134 474,98 476,121 478,182 480,152 482,95 484,118 486,152 488,162 490,141 492,94 494,119 496,182 498,151 500,101 502,116 504,144 506,167 508,146 510,90 512,118 514,179 516,152 518,109 520,112 522,136 524,170 526,148 528,95 530,122 532,165 534,147 536,123 538,118 540,132 542,157 544,143 546,115 548,129 550,146 552,141 554,133 556,128 558,133 560,140 562,136 564,134 565,135 568,137 571,133 574,135 577,135 580,134 583,136 586,134 589,134 592,136 595,134 598,133 601,136 604,134 607,134 610,134 613,134 616,135 619,135 622,137 625,137 628,137 631,134 634,137 637,137 640,135 643,133 646,135 649,133 652,133 655,137 658,134 661,134 664,135 667,136 670,135 673,135 676,135 679,137 682,136 685,135 688,135 691,134 694,136 697,135 700,136 703,136 706,137 709,135 712,135 715,134 718,135 721,136 724,134 727,135 730,136 733,137 736,135 739,136 742,133 745,134 748,134 751,136 754,136 757,134 760,134 763,136 766,135 769,137"/>
  </g>
  <line x1="50" y1="250" x2="770" y2="250" stroke="#ccc" stroke-width="0.5"/>
  <text x="380" y="290" class="axis-label">Time</text>
</svg>