<svg xmlns="http://www.w3.org/2000/svg" width="800" height="300" viewBox="0 0 800 300">
  <style>
    .title { font: bold 14px sans-serif; fill: #333; }
    .legend-text { font: 11px sans-serif; }
    .phase-label { font: italic 10px sans-serif; fill: #555; }
  </style>
  <defs>
    <clipPath id="mw-clip"><rect x="50" y="20" width="720" height="230"/></clipPath>
  </defs>
  <rect width="800" height="300" fill="#f5f5f5" rx="4"/>
  <rect x="50" y="20" width="720" height="230" fill="white" stroke="#ddd" stroke-width="0.5"/>
  <text x="400" y="15" text-anchor="middle" class="title">6-Minute Walk Test (6MWT)</text>
  <line x1="560" y1="272" x2="575" y2="272" stroke="#d62728" stroke-width="1.5"/>
  <text x="578" y="276" class="legend-text">X</text>
  <line x1="600" y1="272" x2="615" y2="272" stroke="#1f77b4" stroke-width="1.5"/>
  <text x="618" y="276" class="legend-text">Y</text>
  <line x1="640" y1="272" x2="655" y2="272" stroke="#2ca02c" stroke-width="1.5"/>
  <text x="658" y="276" class="legend-text">Z</text>
  <rect x="90" y="20" width="640" height="230" fill="#2ca02c" opacity="0.08"/>
  <polyline clip-path="url(#mw-clip)" fill="none" stroke="#d62728" stroke-width="1" opacity="0.9" points="50,127 52,125 54,126 56,126 58,127 60,126 62,124 64,124 66,126 68,123 70,126 72,124 74,126 76,125 78,126 80,125 82,124 84,123 86,126 88,123 90,125 95,125 96,122 97,122 98,124 99,124 100,130 101,130 102,129 103,123 104,119 105,120 106,123 107,128 108,129 109,126 110,124 111,127 112,124 113,118 114,125 115,130 116,129 117,130 118,132 119,126 120,119 121,111 122,121 123,125 124,126 125,133 126,128 127,123 128,119 129,123 130,120 131,128 132,131 133,128 134,137 135,123 136,119 137,118 138,125 139,130 140,128 141,125 142,131 143,124 144,119 145,121 146,126 147,128 148,134 149,132 150,126 151,122 152,119 153,120 154,125 155,127 156,131 157,125 158,123 159,121 160,121 161,118 162,129 163,133 164,127 165,127 166,127 167,119 168,119 169,126 170,126 171,131 172,131 173,131 174,123 175,119 176,124 177,120 178,125 179,131 180,132 181,115 182,119 183,120 184,120 185,120 186,128 187,133 188,126 189,127 190,127 191,121 192,123 193,123 194,128 195,128 196,130 197,127 198,117 199,122 200,125 201,122 202,124 203,133 204,127 205,120 206,122 207,121 208,121 209,126 210,133 211,129 212,127 213,127 214,121 215,118 216,127 217,122 218,122 219,121 220,122 221,128 222,128 223,129 224,131 225,133 226,137 227,132 228,134 229,127 230,123 231,119 232,119 233,113 234,116 235,119 236,120 237,119 238,122 239,123 240,123 241,126 242,128 243,125 244,123 245,120 246,118 247,123 248,129 249,125 250,131 251,128 252,124 253,120 254,119 255,125 256,123 257,128 258,130 259,126 260,126 261,125 262,119 263,118 264,129 265,130 266,126 267,126 268,126 269,122 270,119 271,120 272,131 273,127 274,132 275,132 276,124 277,118 278,123 279,121 280,124 281,129 282,131 283,129 284,120 285,119 286,125 287,125 288,128 289,131 290,129 291,122 292,127 293,119 294,120 295,113 296,126 297,128 298,128 299,126 300,119 301,117 302,133 303,129 304,124 305,130 306,130 307,127 308,120 309,119 310,125 311,124 312,127 313,132 314,128 315,122 316,120 317,120 318,118 319,127 320,132 321,131 322,130 323,128 324,118 325,122 326,127 327,116 328,126 329,133 330,131 331,121 332,119 333,124 334,125 335,128 336,133 337,131 338,125 339,124 340,126 341,118 342,125 343,138 344,127 345,128 346,124 347,127 348,116 349,119 350,125 351,125 352,131 353,129 354,127 355,122 356,120 357,121 358,122 359,123 360,128 361,131 362,125 363,121 364,121 365,122 366,121 367,120 368,133 369,126 370,127 371,123 372,122 373,122 374,130 375,127 376,125 377,130 378,128 379,121 380,120 381,128 382,124 383,127 384,131 385,129 386,123 387,122 388,122 389,121 390,126 391,127 392,130 393,132 394,132 395,134 396,135 397,136 398,131 399,128 400,126 401,122 402,117 403,116 404,115 405,118 406,117 407,120 408,125 409,126 410,127 411,128 412,128 413,128 414,125 415,131 416,132 417,122 418,120 419,124 420,111 421,122 422,131 423,131 424,127 425,125 426,121 427,119 428,119 429,125 430,130 431,131 432,128 433,121 434,122 435,118 436,138 437,128 438,131 439,134 440,124 441,131 442,120 443,123 444,122 445,128 446,131 447,125 448,135 449,124 450,119 451,117 452,126 453,132 454,127 455,129 456,131 457,125 458,116 459,120 460,124 461,124 462,130 463,131 464,123 465,118 466,124 467,119 468,125 469,130 470,133 471,130 472,123 473,122 474,122 475,122 476,126 477,131 478,120 479,127 480,127 481,122 482,116 483,115 484,125 485,124 486,127 487,131 488,124 489,120 490,121 491,123 492,122 493,128 494,132 495,126 496,125 497,121 498,119 499,124 500,125 501,127 502,131 503,124 504,118 505,122 506,117 507,126 508,130 509,130 510,130 511,129 512,120 513,117 514,120 515,127 516,129 517,133 518,130 519,125 520,118 521,124 522,124 523,121 524,121 525,130 526,125 527,122 528,127 529,120 530,119 531,128 532,128 533,126 534,130 535,127 536,119 537,119 538,122 539,122 540,127 541,130 542,127 543,121 544,118 545,125 546,126 547,121 548,122 549,125 550,122 551,128 552,129 553,132 554,133 555,133 556,132 557,137 558,133 559,131 560,124 561,118 562,117 563,114 564,116 565,115 566,119 567,119 568,123 569,122 570,123 571,124 572,128 573,128 574,126 575,125 576,123 577,120 578,123 579,129 580,130 581,128 582,127 583,121 584,111 585,125 586,129 587,126 588,125 589,130 590,124 591,118 592,122 593,121 594,126 595,131 596,121 597,127 598,113 599,122 600,119 601,125 602,124 603,134 604,127 605,128 606,123 607,123 608,119 609,123 610,132 611,131 612,130 613,125 614,122 615,120 616,121 617,123 618,127 619,126 620,132 621,126 622,120 623,124 624,122 625,123 626,128 627,134 628,126 629,124 630,124 631,121 632,121 633,126 634,129 635,128 636,125 637,124 638,122 639,120 640,121 641,123 642,127 643,127 644,126 645,123 646,123 647,121 648,122 649,124 650,126 651,128 652,123 653,121 654,121 655,124 656,121 657,127 658,132 659,129 660,123 661,127 662,118 663,123 664,122 665,127 666,128 667,126 668,127 669,122 670,123 671,126 672,124 673,129 674,127 675,132 676,126 677,125 678,120 679,122 680,122 681,127 682,130 683,127 684,128 685,121 686,120 687,118 688,130 689,129 690,126 691,127 692,117 693,123 694,122 695,126 696,126 697,124 698,128 699,128 700,122 701,118 702,119 703,123 704,126 705,127 706,131 707,128 708,121 709,124 710,118 711,119 712,130 713,132 714,130 715,117 716,123 717,121 718,122 719,136 720,124 725,124 727,124 729,124 731,124 733,124 735,125 737,124 739,127 741,127 743,127 745,125 747,127 749,125 751,125 753,125 755,123 757,126 759,125 761,125 763,125 765,127 767,125 769,126"/>
  <polyline clip-path="url(#mw-clip)" fill="none" stroke="#1f77b4" stroke-width="1" opacity="0.9" points="50,134 52,135 54,137 56,135 58,136 60,133 62,136 64,133 66,134 68,135 70,133 72,135 74,137 76,135 78,133 80,133 82,135 84,133 86,134 88,137 90,133 95,137 96,140 97,134 98,132 99,130 100,132 101,138 102,136 103,138 104,136 105,136 106,132 107,131 108,129 109,134 110,138 111,138 112,134 113,131 114,132 115,135 116,131 117,136 118,138 119,138 120,136 121,131 122,133 123,133 124,138 125,137 126,136 127,137 128,136 129,138 130,132 131,130 132,134 133,139 134,139 135,134 136,135 137,133 138,135 139,133 140,133 141,134 142,142 143,139 144,134 145,132 146,135 147,135 148,134 149,136 150,137 151,139 152,136 153,131 154,131 155,132 156,138 157,138 158,139 159,136 160,135 161,132 162,131 163,134 164,133 165,140 166,140 167,135 168,134 169,131 170,132 171,136 172,133 173,134 174,138 175,140 176,132 177,130 178,130 179,135 180,136 181,135 182,137 183,137 184,135 185,133 186,133 187,133 188,137 189,139 190,137 191,134 192,132 193,132 194,135 195,135 196,136 197,140 198,139 199,134 200,133 201,130 202,133 203,138 204,134 205,134 206,138 207,138 208,131 209,131 210,131 211,136 212,141 213,139 214,134 215,135 216,137 217,138 218,137 219,136 220,136 221,138 222,138 223,139 224,140 225,144 226,142 227,143 228,146 229,146 230,146 231,145 232,144 233,143 234,142 235,144 236,141 237,140 238,138 239,137 240,136 241,137 242,136 243,137 244,137 245,137 246,134 247,131 248,131 249,134 250,132 251,134 252,140 253,140 254,138 255,131 256,132 257,132 258,136 259,136 260,138 261,134 262,134 263,136 264,130 265,133 266,134 267,138 268,137 269,135 270,131 271,135 272,132 273,132 274,136 275,139 276,140 277,137 278,132 279,132 280,134 281,137 282,135 283,134 284,135 285,137 286,137 287,131 288,131 289,134 290,136 291,137 292,136 293,136 294,136 295,136 296,132 297,134 298,136 299,137 300,138 301,137 302,130 303,134 304,136 305,137 306,135 307,136 308,140 309,139 310,134 311,132 312,134 313,138 314,136 315,136 316,135 317,134 318,137 319,133 320,132 321,134 322,137 323,139 324,137 325,135 326,135 327,132 328,132 329,135 330,134 331,138 332,137 333,133 334,129 335,130 336,134 337,135 338,137 339,134 340,135 341,135 342,134 343,132 344,134 345,137 346,141 347,139 348,133 349,134 350,134 351,134 352,135 353,135 354,139 355,137 356,135 357,134 358,134 359,136 360,138 361,136 362,138 363,136 364,135 365,133 366,130 367,130 368,134 369,140 370,136 371,136 372,137 373,132 374,135 375,130 376,134 377,136 378,142 379,135 380,135 381,131 382,135 383,137 384,136 385,138 386,137 387,136 388,136 389,136 390,137 391,138 392,139 393,141 394,141 395,141 396,142 397,142 398,144 399,146 400,143 401,146 402,143 403,144 404,144 405,142 406,142 407,142 408,141 409,138 410,137 411,136 412,138 413,137 414,137 415,134 416,135 417,137 418,137 419,138 420,137 421,132 422,129 423,136 424,136 425,137 426,137 427,134 428,136 429,135 430,131 431,134 432,139 433,137 434,136 435,136 436,131 437,130 438,134 439,136 440,137 441,136 442,138 443,135 444,130 445,129 446,135 447,137 448,136 449,138 450,137 451,136 452,134 453,131 454,133 455,136 456,139 457,137 458,136 459,134 460,134 461,136 462,134 463,135 464,134 465,138 466,138 467,133 468,128 469,132 470,135 471,140 472,138 473,134 474,137 475,135 476,135 477,129 478,133 479,139 480,141 481,137 482,133 483,134 484,136 485,134 486,136 487,137 488,137 489,140 490,134 491,133 492,134 493,136 494,136 495,136 496,135 497,137 498,134 499,132 500,132 501,134 502,138 503,139 504,136 505,133 506,133 507,136 508,136 509,132 510,133 511,136 512,141 513,137 514,132 515,132 516,132 517,134 518,137 519,135 520,137 521,136 522,132 523,132 524,134 525,134 526,139 527,136 528,134 529,134 530,134 531,131 532,133 533,132 534,137 535,142 536,136 537,131 538,131 539,131 540,136 541,136 542,138 543,136 544,137 545,133 546,136 547,135 548,135 549,138 550,139 551,138 552,138 553,142 554,140 555,142 556,143 557,145 558,146 559,147 560,143 561,143 562,145 563,145 564,145 565,142 566,141 567,140 568,138 569,136 570,139 571,137 572,136 573,135 574,136 575,135 576,139 577,136 578,131 579,132 580,136 581,141 582,138 583,137 584,133 585,133 586,134 587,132 588,136 589,134 590,137 591,139 592,136 593,132 594,132 595,134 596,136 597,134 598,137 599,136 600,138 601,134 602,128 603,134 604,140 605,136 606,136 607,133 608,135 609,135 610,134 611,133 612,133 613,137 614,138 615,137 616,131 617,131 618,133 619,133 620,135 621,137 622,137 623,139 624,132 625,133 626,133 627,137 628,138 629,139 630,137 631,136 632,135 633,131 634,134 635,134 636,139 637,137 638,135 639,132 640,131 641,134 642,135 643,133 644,137 645,140 646,138 647,137 648,130 649,131 650,135 651,137 652,135 653,138 654,136 655,134 656,132 657,133 658,132 659,137 660,140 661,137 662,134 663,134 664,132 665,135 666,132 667,136 668,137 669,141 670,134 671,130 672,129 673,134 674,136 675,137 676,136 677,137 678,139 679,134 680,130 681,132 682,134 683,139 684,139 685,135 686,135 687,135 688,133 689,133 690,133 691,139 692,138 693,135 694,132 695,133 696,134 697,136 698,136 699,136 700,138 701,140 702,133 703,132 704,133 705,135 706,139 707,138 708,135 709,133 710,135 711,134 712,132 713,134 714,137 715,138 716,138 717,135 718,134 719,135 720,134 725,133 727,135 729,136 731,133 733,136 735,135 737,135 739,137 741,135 743,134 745,136 747,134 749,134 751,136 753,136 755,137 757,135 759,135 761,135 763,133 765,136 767,137 769,134"/>
  <polyline clip-path="url(#mw-clip)" fill="none" stroke="#2ca02c" stroke-width="1" opacity="0.9" points="50,140 52,144 54,144 56,142 58,140 60,142 62,144 64,141 66,141 68,141 70,143 72,141 74,144 76,144 78,144 80,141 82,141 84,142 86,140 88,142 90,143 95,143 96,149 97,145 98,139 99,142 100,137 101,137 102,144 103,144 104,145 105,141 106,144 107,141 108,137 109,143 110,144 111,149 112,144 113,143 114,144 115,140 116,141 117,137 118,142 119,143 120,145 121,144 122,148 123,141 124,137 125,138 126,141 127,136 128,141 129,148 130,157 131,145 132,141 133,140 134,140 135,136 136,143 137,145 138,148 139,146 140,143 141,145 142,137 143,137 144,137 145,144 146,140 147,147 148,150 149,142 150,142 151,141 152,139 153,137 154,142 155,146 156,148 157,141 158,144 159,139 160,138 161,137 162,141 163,145 164,149 165,144 166,146 167,147 168,137 169,135 170,140 171,140 172,142 173,141 174,147 175,146 176,139 177,136 178,141 179,140 180,142 181,143 182,151 183,143 184,149 185,145 186,140 187,137 188,137 189,151 190,146 191,142 192,147 193,146 194,137 195,134 196,138 197,141 198,145 199,143 200,144 201,145 202,141 203,140 204,139 205,142 206,141 207,140 208,150 209,147 210,142 211,143 212,138 213,137 214,140 215,140 216,142 217,142 218,146 219,146 220,143 221,146 222,145 223,142 224,137 225,139 226,136 227,135 228,138 229,133 230,135 231,133 232,138 233,136 234,139 235,141 236,142 237,140 238,145 239,143 240,141 241,145 242,142 243,140 244,142 245,148 246,145 247,135 248,137 249,142 250,140 251,143 252,140 253,150 254,145 255,137 256,138 257,132 258,139 259,139 260,146 261,146 262,144 263,144 264,139 265,140 266,129 267,142 268,143 269,147 270,141 271,148 272,143 273,137 274,139 275,140 276,145 277,140 278,144 279,146 280,141 281,141 282,140 283,133 284,140 285,142 286,146 287,145 288,143 289,142 290,144 291,139 292,137 293,143 294,151 295,146 296,142 297,143 298,140 299,136 300,137 301,136 302,140 303,141 304,135 305,144 306,142 307,139 308,141 309,138 310,141 311,137 312,145 313,147 314,147 315,144 316,145 317,139 318,138 319,139 320,142 321,143 322,142 323,142 324,145 325,138 326,139 327,139 328,144 329,139 330,144 331,149 332,149 333,142 334,135 335,145 336,137 337,137 338,142 339,145 340,145 341,140 342,148 343,139 344,137 345,140 346,141 347,146 348,145 349,144 350,146 351,141 352,134 353,141 354,140 355,144 356,144 357,147 358,145 359,141 360,139 361,139 362,138 363,142 364,140 365,147 366,147 367,140 368,138 369,144 370,140 371,138 372,141 373,149 374,146 375,144 376,141 377,143 378,140 379,136 380,145 381,145 382,143 383,148 384,149 385,145 386,142 387,145 388,143 389,145 390,145 391,144 392,141 393,139 394,142 395,140 396,138 397,137 398,134 399,133 400,137 401,133 402,138 403,138 404,139 405,138 406,141 407,139 408,144 409,141 410,141 411,145 412,144 413,143 414,145 415,140 416,142 417,145 418,144 419,146 420,144 421,141 422,137 423,139 424,141 425,146 426,146 427,145 428,145 429,145 430,141 431,136 432,142 433,143 434,142 435,143 436,150 437,143 438,142 439,139 440,138 441,136 442,138 443,148 444,147 445,143 446,139 447,143 448,142 449,137 450,140 451,146 452,147 453,144 454,144 455,145 456,141 457,136 458,136 459,145 460,140 461,141 462,149 463,146 464,140 465,142 466,139 467,138 468,140 469,147 470,144 471,144 472,143 473,143 474,140 475,137 476,135 477,145 478,149 479,143 480,142 481,147 482,137 483,134 484,150 485,145 486,143 487,145 488,146 489,148 490,138 491,135 492,140 493,137 494,141 495,146 496,145 497,148 498,144 499,145 500,140 501,135 502,140 503,143 504,149 505,142 506,142 507,148 508,141 509,135 510,137 511,140 512,146 513,144 514,145 515,148 516,140 517,138 518,137 519,143 520,141 521,141 522,148 523,147 524,139 525,143 526,140 527,135 528,135 529,145 530,144 531,142 532,142 533,150 534,139 535,140 536,138 537,140 538,141 539,142 540,144 541,149 542,140 543,138 544,140 545,143 546,141 547,143 548,140 549,145 550,144 551,142 552,142 553,144 554,137 555,137 556,139 557,138 558,136 559,137 560,132 561,132 562,136 563,137 564,135 565,137 566,139 567,142 568,140 569,145 570,145 571,146 572,144 573,145 574,146 575,144 576,146 577,142 578,141 579,136 580,136 581,142 582,143 583,148 584,141 585,144 586,145 587,135 588,136 589,143 590,144 591,142 592,142 593,146 594,147 595,141 596,145 597,143 598,143 599,137 600,142 601,146 602,147 603,143 604,144 605,138 606,135 607,139 608,148 609,143 610,145 611,143 612,147 613,143 614,138 615,138 616,146 617,146 618,142 619,149 620,144 621,137 622,135 623,140 624,139 625,139 626,141 627,149 628,145 629,144 630,140 631,141 632,139 633,138 634,135 635,146 636,147 637,143 638,141 639,141 640,136 641,139 642,145 643,143 644,145 645,148 646,144 647,143 648,136 649,143 650,141 651,140 652,144 653,149 654,142 655,144 656,140 657,138 658,136 659,138 660,145 661,145 662,146 663,146 664,142 665,143 666,134 667,137 668,141 669,140 670,143 671,147 672,141 673,145 674,137 675,142 676,142 677,137 678,145 679,143 680,145 681,142 682,147 683,142 684,141 685,138 686,138 687,146 688,143 689,141 690,144 691,144 692,140 693,138 694,142 695,143 696,143 697,146 698,148 699,145 700,140 701,141 702,139 703,139 704,141 705,147 706,144 707,145 708,147 709,144 710,143 711,138 712,138 713,143 714,147 715,144 716,142 717,140 718,140 719,139 720,142 725,144 727,143 729,140 731,144 733,144 735,142 737,143 739,144 741,143 743,144 745,143 747,143 749,143 751,141 753,142 755,142 757,141 759,142 761,140 763,140 765,143 767,143 769,144"/>
  <line x1="50" y1="250" x2="770" y2="250" stroke="#999" stroke-width="0.5"/>
  <text x="70" y="265" text-anchor="middle" class="phase-label">rest</text>
  <text x="160" y="265" text-anchor="middle" class="phase-label">walk</text>
  <text x="230" y="265" text-anchor="middle" class="phase-label">turn</text>
  <text x="315" y="265" text-anchor="middle" class="phase-label">walk</text>
  <text x="400" y="265" text-anchor="middle" class="phase-label">turn</text>
  <text x="480" y="265" text-anchor="middle" class="phase-label">walk</text>
  <text x="560" y="265" text-anchor="middle" class="phase-label">turn</text>
  <text x="640" y="265" text-anchor="middle" class="phase-label">walk</text>
  <text x="750" y="265" text-anchor="middle" class="phase-label">rest</text>
</svg>