<svg xmlns="http://www.w3.org/2000/svg" width="800" height="300" viewBox="0 0 800 300">
  <style>
    .title { font: bold 14px sans-serif; fill: #333; }
    .axis-label { font: 11px sans-serif; fill: #666; }
    .legend-text { font: 11px sans-serif; }
    .phase-label { font: italic 10px sans-serif; fill: #555; }
  </style>
  <defs>
    <clipPath id="w6-plot"><rect x="50" y="20" width="720" height="230"/></clipPath>
  </defs>
  <rect width="800" height="300" fill="#f5f5f5" rx="4"/>
  <rect x="50" y="20" width="720" height="230" fill="white" stroke="#ddd" stroke-width="0.5"/>
  <text x="60" y="16" class="title">6-Minute Walk Test — Sustained Walking with Corridor Turns</text>
  <line x1="530" y1="12" x2="550" y2="12" stroke="#800000" stroke-width="2"/>
  <text x="553" y="16" class="legend-text" fill="#800000">X</text>
  <line x1="580" y1="12" x2="600" y2="12" stroke="#7EBEC5" stroke-width="2"/>
  <text x="603" y="16" class="legend-text" fill="#7EBEC5">Y</text>
  <line x1="640" y1="12" x2="660" y2="12" stroke="#58595b" stroke-width="2"/>
  <text x="663" y="16" class="legend-text" fill="#58595b">Z</text>
  <!-- Activity overlay — tight around sustained walk -->
  <rect x="90" y="20" width="645" height="230" fill="#00cc00" opacity="0.1"/>
  <line x1="90" y1="20" x2="90" y2="250" stroke="#00cc00" stroke-width="1.5" stroke-dasharray="4,3" opacity="0.6"/>
  <line x1="735" y1="20" x2="735" y2="250" stroke="#00cc00" stroke-width="1.5" stroke-dasharray="4,3" opacity="0.6"/>
  <line x1="50" y1="135" x2="770" y2="135" stroke="#eee" stroke-width="0.5"/>
  <text x="222" y="265" class="phase-label">turn</text>
  <text x="392" y="265" class="phase-label">turn</text>
  <text x="562" y="265" class="phase-label">turn</text>
  <g clip-path="url(#w6-plot)">
    <polyline fill="none" stroke="#800000" stroke-width="1.3" opacity="0.85" stroke-linejoin="round"
      points="50,134 53,135 56,137 59,137 62,137 65,136 68,136 71,134 74,133 77,135 80,136 83,133 86,135 89,137 92,136 93,135 95,133 97,133 99,134 101,139 103,148 105,138 107,121 109,123 111,130 113,140 115,162 117,151 119,113 121,109 123,124 125,137 127,171 129,171 131,114 133,94 135,116 137,131 139,167 141,184 143,128 145,92 147,111 149,126 151,156 153,187 155,145 157,94 159,105 161,123 163,146 165,184 167,162 169,101 171,99 173,120 175,137 177,177 179,175 181,113 183,94 185,116 187,131 189,167 191,183 193,128 195,92 197,111 199,127 201,156 203,186 205,145 207,95 209,105 211,124 213,145 215,175 217,155 219,112 221,113 223,127 225,136 227,152 229,148 231,128 233,119 235,126 237,133 239,154 241,168 243,130 245,100 247,114 249,127 251,156 253,186 255,145 257,95 259,106 261,124 263,145 265,183 267,161 269,102 271,100 273,121 275,137 277,176 279,174 281,114 283,95 285,117 287,131 289,166 291,182 293,129 295,93 297,112 299,127 301,156 303,185 305,145 307,96 309,106 311,124 313,145 315,183 317,161 319,103 321,100 323,121 325,137 327,176 329,173 331,114 333,96 335,117 337,131 339,166 341,182 343,129 345,94 347,112 349,127 351,155 353,184 355,145 357,96 359,106 361,124 363,145 365,182 367,160 369,103 371,101 373,121 375,137 377,175 379,173 381,115 383,100 385,120 387,132 389,156 391,163 393,132 395,116 397,126 399,132 401,142 403,155 405,140 407,114 409,118 411,127 413,143 415,173 417,157 419,105 421,101 423,121 425,137 427,175 429,172 431,115 433,97 435,117 437,131 439,165 441,180 443,129 445,95 447,113 449,127 451,155 453,183 455,145 457,97 459,107 461,124 463,145 465,181 467,160 469,104 471,101 473,121 475,137 477,174 479,172 481,115 483,97 485,118 487,131 489,165 491,180 493,129 495,95 497,113 499,127 501,154 503,183 505,144 507,98 509,107 511,124 513,145 515,180 517,159 519,104 521,102 523,121 525,137 527,174 529,171 531,115 533,98 535,118 537,131 539,164 541,179 543,129 545,96 547,113 549,127 551,154 553,177 555,143 557,107 559,116 561,128 563,140 565,156 567,145 569,125 571,124 573,130 575,136 577,156 579,157 581,121 583,107 585,121 587,132 589,163 591,179 593,129 595,96 597,114 599,127 601,154 603,181 605,144 607,99 609,108 611,125 613,145 615,179 617,159 619,105 621,103 623,122 625,137 627,173 629,171 631,116 633,99 635,118 637,131 639,164 641,178 643,129 645,97 647,114 649,127 651,154 653,181 655,144 657,99 659,109 661,125 663,144 665,178 667,158 669,105 671,103 673,122 675,137 677,172 679,170 681,116 683,99 685,119 687,131 689,163 691,178 693,129 695,97 697,115 699,128 701,151 703,171 705,142 707,110 709,118 711,129 713,140 715,156 717,145 719,123 721,124 723,131 725,135 727,142 729,140 731,133 733,133 735,135 738,136 741,137 744,136 747,136 750,136 753,136 756,134 759,135 762,134 765,134 768,135"/>
    <polyline fill="none" stroke="#7EBEC5" stroke-width="1.3" opacity="0.85" stroke-linejoin="round"
      points="50,134 53,136 56,136 59,134 62,137 65,133 68,133 71,137 74,134 77,136 80,137 83,133 86,137 89,135 92,137 93,135 95,135 97,134 99,132 101,130 103,136 105,145 107,141 109,132 111,128 113,124 115,131 117,152 119,151 121,132 123,124 125,118 127,123 129,154 131,164 133,137 135,122 137,115 139,115 141,147 143,168 145,144 147,124 149,118 151,113 153,137 155,167 157,152 159,127 161,119 163,112 165,128 167,163 169,159 171,131 173,121 175,114 177,121 179,156 181,165 183,137 185,122 187,116 189,116 191,147 193,167 195,144 197,124 199,118 201,113 203,137 205,167 207,152 209,127 211,120 213,115 215,129 217,156 219,151 221,133 223,127 225,125 227,129 229,142 231,145 233,136 235,129 237,125 239,123 241,143 243,159 245,142 247,125 249,119 251,113 253,137 255,166 257,152 259,127 261,120 263,113 265,128 267,162 269,159 271,131 273,121 275,114 277,121 279,155 281,164 283,137 285,122 287,116 289,116 291,147 293,167 295,144 297,124 299,118 301,114 303,137 305,166 307,151 309,127 311,120 313,113 315,128 317,162 319,158 321,131 323,121 325,114 327,121 329,155 331,164 333,137 335,123 337,116 339,116 341,147 343,166 345,144 347,124 349,118 351,114 353,137 355,166 357,151 359,127 361,120 363,113 365,128 367,162 369,158 371,131 373,121 375,115 377,121 379,155 381,162 383,137 385,125 387,121 389,122 391,142 393,152 395,139 397,131 399,130 401,128 403,136 405,149 407,144 409,130 411,125 413,119 415,130 417,159 419,157 421,131 423,122 425,115 427,121 429,155 431,163 433,137 435,123 437,117 439,117 441,146 443,165 445,144 447,124 449,119 451,114 453,137 455,165 457,151 459,127 461,121 463,114 465,129 467,161 469,158 471,131 473,122 475,115 477,122 479,154 481,163 483,137 485,123 487,117 489,117 491,146 493,165 495,143 497,125 499,119 501,115 503,137 505,164 507,151 509,127 511,121 513,114 515,129 517,161 519,157 521,131 523,122 525,115 527,122 529,154 531,162 533,137 535,123 537,117 539,117 541,146 543,165 545,143 547,125 549,119 551,116 553,137 555,159 557,147 559,130 561,126 563,124 565,132 567,145 569,142 571,134 573,130 575,126 577,128 579,147 581,153 583,136 585,125 587,119 589,118 591,146 593,164 595,143 597,125 599,119 601,115 603,137 605,164 607,150 609,127 611,121 613,115 615,129 617,160 619,157 621,131 623,122 625,116 627,122 629,154 631,162 633,137 635,123 637,118 639,118 641,146 643,164 645,143 647,125 649,120 651,115 653,137 655,163 657,150 659,128 661,121 663,115 665,129 667,160 669,156 671,131 673,122 675,116 677,122 679,153 681,161 683,137 685,124 687,118 689,118 691,146 693,164 695,143 697,126 699,121 701,119 703,137 705,156 707,145 709,130 711,127 713,124 715,132 717,146 719,143 721,134 723,131 725,130 727,133 729,138 731,138 733,135 735,135 738,136 741,134 744,134 747,133 750,135 753,137 756,136 759,134 762,135 765,137 768,136"/>
    <polyline fill="none" stroke="#58595b" stroke-width="1.3" opacity="0.85" stroke-linejoin="round"
      points="50,136 53,135 56,135 59,134 62,136 65,134 68,134 71,134 74,137 77,136 80,136 83,137 86,135 89,137 92,135 93,135 95,134 97,131 99,132 101,141 103,146 105,137 107,124 109,123 111,132 113,141 115,148 117,150 119,134 121,109 123,107 125,142 127,174 129,161 131,120 133,100 135,116 137,139 139,154 141,162 143,150 145,115 147,92 149,117 151,167 153,179 155,142 157,105 159,105 161,128 163,147 165,159 167,159 169,134 171,99 173,99 175,143 177,180 179,164 181,120 183,100 185,116 187,139 189,154 191,161 193,150 195,115 197,92 199,118 201,167 203,179 205,142 207,105 209,106 211,128 213,146 215,155 217,153 219,134 221,113 223,115 225,139 227,153 229,145 231,130 233,121 235,126 237,137 239,146 241,153 243,146 245,119 247,97 249,118 251,166 253,178 255,142 257,105 259,106 261,128 263,147 265,158 267,159 269,134 271,100 273,100 275,143 277,179 279,163 281,120 283,101 285,117 287,139 289,153 291,161 293,149 295,116 297,93 299,118 301,166 303,178 305,141 307,106 309,106 311,128 313,147 315,158 317,158 319,134 321,100 323,100 325,143 327,179 329,163 331,120 333,102 335,117 337,139 339,153 341,160 343,149 345,116 347,94 349,118 351,165 353,177 355,141 357,106 359,107 361,128 363,147 365,158 367,158 369,134 371,101 373,100 375,143 377,178 379,163 381,121 383,105 385,120 387,138 389,147 391,150 393,143 395,126 397,119 399,129 401,145 403,152 405,138 407,119 409,118 411,131 413,144 415,154 417,155 419,134 421,101 423,101 425,143 427,177 429,162 431,121 433,102 435,117 437,139 439,153 441,160 443,149 445,116 447,95 449,119 451,165 453,176 455,141 457,107 459,107 461,129 463,146 465,157 467,157 469,134 471,102 473,101 475,143 477,177 479,162 481,121 483,103 485,117 487,139 489,152 491,159 493,149 495,117 497,96 499,119 501,164 503,175 505,141 507,107 509,108 511,129 513,146 515,157 517,157 519,134 521,102 523,102 525,142 527,176 529,162 531,121 533,103 535,118 537,138 539,152 541,159 543,149 545,117 547,96 549,119 551,163 553,171 555,140 557,114 559,117 561,131 563,141 565,145 567,144 569,135 571,124 573,122 575,139 577,157 579,151 581,125 583,111 585,121 587,138 589,151 591,159 593,148 595,117 597,97 599,119 601,164 603,174 605,141 607,108 609,108 611,129 613,146 615,156 617,157 619,134 621,103 623,103 625,142 627,175 629,161 631,121 633,104 635,118 637,138 639,152 641,159 643,148 645,117 647,97 649,120 651,163 653,174 655,141 657,108 659,109 661,129 663,146 665,156 667,156 669,134 671,103 673,103 675,142 677,175 679,161 681,121 683,105 685,118 687,138 689,152 691,158 693,148 695,118 697,99 699,121 701,159 703,166 705,139 707,116 709,118 711,131 713,141 715,145 717,144 719,135 721,124 723,126 725,137 727,143 729,139 731,134 733,133 735,136 738,135 741,136 744,137 747,136 750,133 753,137 756,134 759,135 762,135 765,137 768,135"/>
  </g>
  <line x1="50" y1="250" x2="770" y2="250" stroke="#ccc" stroke-width="0.5"/>
  <text x="380" y="290" class="axis-label">Time</text>
</svg>