<svg xmlns="http://www.w3.org/2000/svg" width="800" height="300" viewBox="0 0 800 300">
  <style>
    .title { font: bold 14px sans-serif; fill: #333; }
    .axis-label { font: 11px sans-serif; fill: #666; }
    .legend-text { font: 11px sans-serif; }
    .phase-label { font: italic 10px sans-serif; fill: #555; }
  </style>
  <defs>
    <clipPath id="tug-plot"><rect x="50" y="20" width="720" height="230"/></clipPath>
  </defs>
  <rect width="800" height="300" fill="#f5f5f5" rx="4"/>
  <rect x="50" y="20" width="720" height="230" fill="white" stroke="#ddd" stroke-width="0.5"/>
  <text x="60" y="16" class="title">Timed Up and Go (TUG)</text>
  <line x1="510" y1="12" x2="530" y2="12" stroke="#800000" stroke-width="2"/>
  <text x="533" y="16" class="legend-text" fill="#800000">X</text>
  <line x1="560" y1="12" x2="580" y2="12" stroke="#7EBEC5" stroke-width="2"/>
  <text x="583" y="16" class="legend-text" fill="#7EBEC5">Y</text>
  <line x1="620" y1="12" x2="640" y2="12" stroke="#58595b" stroke-width="2"/>
  <text x="643" y="16" class="legend-text" fill="#58595b">Z</text>
  <!-- Activity overlay — tight around rise through sit -->
  <rect x="105" y="20" width="543" height="230" fill="yellow" opacity="0.15"/>
  <line x1="105" y1="20" x2="105" y2="250" stroke="#cc0" stroke-width="1.5" stroke-dasharray="4,3" opacity="0.6"/>
  <line x1="648" y1="20" x2="648" y2="250" stroke="#cc0" stroke-width="1.5" stroke-dasharray="4,3" opacity="0.6"/>
  <line x1="50" y1="135" x2="770" y2="135" stroke="#eee" stroke-width="0.5"/>
  <text x="60" y="265" class="phase-label">rest</text>
  <text x="115" y="265" class="phase-label">rise</text>
  <text x="220" y="265" class="phase-label">walk out</text>
  <text x="350" y="265" class="phase-label">turn</text>
  <text x="455" y="265" class="phase-label">walk back</text>
  <text x="595" y="265" class="phase-label">sit</text>
  <text x="680" y="265" class="phase-label">rest</text>
  <g clip-path="url(#tug-plot)">
    <polyline fill="none" stroke="#800000" stroke-width="1.3" opacity="0.85" stroke-linejoin="round"
      points="50,135 53,134 56,135 59,134 62,133 65,135 68,134 71,137 74,133 77,136 80,136 83,136 86,135 89,134 92,137 95,136 98,135 101,136 104,137 107,134 108,135 110,125 112,115 114,107 116,104 118,102 120,98 122,88 124,76 126,67 128,64 130,68 132,75 134,78 136,74 138,65 140,56 142,55 144,61 146,72 148,82 150,86 152,84 154,81 156,83 158,90 160,101 162,112 164,121 166,127 168,135 172,135 174,134 176,133 178,137 180,140 182,135 184,127 186,129 188,142 190,147 192,135 194,120 196,125 198,146 200,153 202,135 204,114 206,121 208,150 210,160 212,135 214,107 216,117 218,154 220,167 222,135 224,101 226,113 228,158 230,173 232,135 234,97 236,111 238,159 240,173 242,135 244,97 246,111 248,159 250,173 252,135 254,97 256,111 258,159 260,173 262,135 264,97 266,111 268,159 270,173 272,135 274,97 276,111 278,159 280,173 282,135 284,97 286,111 288,158 290,171 292,135 294,101 296,115 298,154 300,165 302,135 304,108 306,119 308,150 310,158 312,135 314,115 316,123 318,146 320,151 322,135 324,121 326,127 328,142 330,145 332,135 334,128 336,131 338,138 340,138 342,135 344,134 345,134 347,132 349,127 351,134 353,127 355,122 357,118 359,126 361,118 363,111 365,113 367,119 369,117 371,108 373,109 375,106 377,106 379,112 381,116 383,113 385,111 387,109 389,112 391,117 393,119 395,123 397,119 399,118 401,129 403,129 405,124 407,132 409,137 410,135 412,134 414,135 416,139 418,139 420,132 422,127 424,134 426,145 428,143 430,129 432,121 434,133 436,151 438,148 440,125 442,114 444,132 446,157 448,152 450,122 452,107 454,131 456,163 458,157 460,119 462,101 464,130 466,169 468,161 470,117 472,98 474,130 476,169 478,161 480,117 482,98 484,130 486,169 488,161 490,117 492,98 494,130 496,169 498,161 500,117 502,98 504,130 506,169 508,161 510,117 512,98 514,130 516,169 518,161 520,117 522,98 524,130 526,168 528,159 530,119 532,103 534,131 536,162 538,154 540,122 542,110 544,132 546,156 548,150 550,125 552,117 554,133 556,150 558,145 560,129 562,123 564,134 566,143 568,141 570,132 572,130 574,134 576,137 578,136 585,135 587,125 589,117 591,111 593,108 595,104 597,98 599,88 601,78 603,72 605,73 607,77 609,81 611,80 613,74 615,65 617,61 619,63 621,71 623,81 625,86 627,86 629,84 631,83 633,87 635,96 637,106 639,115 641,121 643,127 645,135 648,137 651,135 654,135 657,134 660,136 663,134 666,135 669,135 672,136 675,136 678,136 681,134 684,135 687,134 690,137 693,134 696,137 699,136 702,135 705,135 708,133 711,137 714,135 717,135 720,134 723,136 726,135 729,135 732,136 735,136 738,137 741,133 744,136 747,133 750,137 753,137 756,135 759,134 762,136 765,134 768,134"/>
    <polyline fill="none" stroke="#7EBEC5" stroke-width="1.3" opacity="0.85" stroke-linejoin="round"
      points="50,134 53,136 56,134 59,134 62,136 65,136 68,137 71,134 74,136 77,135 80,136 83,137 86,135 89,137 92,134 95,134 98,134 101,135 104,133 107,135 108,135 110,138 112,144 114,151 116,155 118,155 120,152 122,154 124,162 126,171 128,174 130,168 132,161 134,161 136,169 138,178 140,179 142,170 144,161 146,159 148,166 150,171 152,169 154,160 156,152 158,150 160,151 162,151 164,146 166,140 168,135 172,135 174,135 176,134 178,133 180,136 182,139 184,137 186,130 188,129 190,137 192,144 194,139 196,127 198,125 200,138 202,148 204,140 206,124 208,122 210,139 212,152 214,142 216,120 218,118 220,140 222,157 224,143 226,117 228,114 230,141 232,160 234,144 236,116 238,114 240,141 242,160 244,144 246,116 248,114 250,141 252,160 254,144 256,116 258,114 260,141 262,160 264,144 266,116 268,114 270,141 272,160 274,144 276,116 278,114 280,141 282,160 284,144 286,116 288,114 290,141 292,158 294,143 296,119 298,118 300,140 302,154 304,142 306,122 308,121 310,139 312,149 314,140 316,125 318,125 320,138 322,145 324,138 326,129 328,129 330,137 332,141 334,137 336,132 338,132 340,136 342,136 344,135 345,138 347,134 349,143 351,136 353,146 355,144 357,147 359,142 361,151 363,152 365,153 367,150 369,148 371,146 373,155 375,146 377,156 379,152 381,149 383,154 385,147 387,150 389,151 391,146 393,147 395,144 397,143 399,145 401,143 403,136 405,138 407,141 409,135 410,135 412,135 414,133 416,134 418,137 420,139 422,134 424,129 426,132 428,140 430,142 432,134 434,125 436,130 438,143 440,146 442,134 444,121 446,128 448,145 450,150 452,133 454,117 456,126 458,148 460,153 462,133 464,114 466,124 468,151 470,156 472,132 474,112 476,124 478,151 480,156 482,132 484,112 486,124 488,151 490,156 492,132 494,112 496,124 498,151 500,156 502,132 504,112 506,124 508,151 510,156 512,132 514,112 516,124 518,151 520,156 522,132 524,113 526,124 528,149 530,153 532,133 534,117 536,126 538,147 540,150 542,133 544,121 546,128 548,144 550,146 552,134 554,125 556,130 558,141 560,142 562,134 564,129 566,132 568,138 570,139 572,135 574,133 576,134 578,136 585,135 587,139 589,144 591,149 593,152 595,151 597,150 599,155 601,163 603,169 605,167 607,161 609,158 611,162 613,170 615,175 617,171 619,163 621,158 623,161 625,167 627,169 629,164 631,155 633,150 635,150 637,151 639,149 641,144 643,139 645,135 648,135 651,134 654,135 657,137 660,133 663,137 666,136 669,136 672,136 675,136 678,134 681,134 684,136 687,133 690,135 693,133 696,136 699,134 702,134 705,134 708,137 711,135 714,136 717,136 720,136 723,135 726,134 729,135 732,136 735,137 738,135 741,136 744,135 747,135 750,136 753,133 756,135 759,135 762,137 765,135 768,135"/>
    <polyline fill="none" stroke="#58595b" stroke-width="1.3" opacity="0.85" stroke-linejoin="round"
      points="50,133 53,135 56,135 59,134 62,135 65,136 68,135 71,134 74,135 77,137 80,133 83,136 86,134 89,136 92,135 95,135 98,136 101,136 104,137 107,134 108,135 110,145 112,153 114,156 116,157 118,161 120,172 122,185 124,194 126,192 128,183 130,177 132,182 134,196 136,208 138,209 140,198 142,184 144,178 146,184 148,194 150,198 152,191 154,177 156,165 158,161 160,161 162,160 164,154 166,144 168,135 172,135 174,134 176,133 178,137 180,140 182,136 184,128 186,129 188,140 190,146 192,137 194,123 196,125 198,142 200,152 202,138 204,118 206,121 208,145 210,158 212,138 214,112 216,116 218,148 220,164 222,139 224,107 226,112 228,151 230,169 232,140 234,104 236,111 238,151 240,169 242,140 244,104 246,111 248,151 250,169 252,140 254,104 256,111 258,151 260,169 262,140 264,104 266,111 268,151 270,169 272,140 274,104 276,111 278,151 280,169 282,140 284,104 286,111 288,151 290,168 292,140 294,107 296,114 298,148 300,162 302,139 304,113 306,119 308,146 310,156 312,138 314,118 316,123 318,143 320,150 322,137 324,124 326,127 328,140 330,144 332,136 334,129 336,131 338,137 340,138 342,135 344,134 345,135 347,139 349,136 351,140 353,147 355,149 357,150 359,150 361,152 363,154 365,147 367,147 369,148 371,153 373,153 375,157 377,158 379,152 381,150 383,160 385,153 387,150 389,157 391,156 393,148 395,144 397,143 399,142 401,148 403,145 405,144 407,138 409,134 410,135 412,134 414,134 416,138 418,139 420,133 422,128 424,133 426,143 428,143 430,131 432,122 434,131 436,148 438,148 440,129 442,116 444,130 446,152 448,152 450,127 452,111 454,128 456,157 458,157 460,125 462,105 464,127 466,162 468,161 470,123 472,102 474,126 476,163 478,161 480,123 482,102 484,126 486,163 488,161 490,123 492,102 494,126 496,163 498,161 500,123 502,102 504,126 506,163 508,161 510,123 512,102 514,126 516,163 518,161 520,123 522,102 524,126 526,161 528,159 530,125 532,107 534,128 536,156 538,154 540,127 542,113 544,129 546,152 548,150 550,129 552,119 554,131 556,147 558,145 560,131 562,125 564,133 566,142 568,140 570,133 572,130 574,134 576,137 578,136 585,135 587,144 589,150 591,152 593,154 595,161 597,173 599,183 601,186 603,181 605,175 607,175 609,184 611,196 613,203 615,198 617,186 619,177 621,178 623,186 625,193 627,192 629,181 631,169 633,162 635,161 637,162 639,159 641,151 643,142 645,135 648,135 651,133 654,136 657,133 660,134 663,136 666,137 669,134 672,135 675,133 678,134 681,137 684,134 687,135 690,136 693,134 696,137 699,134 702,135 705,137 708,133 711,134 714,135 717,134 720,135 723,136 726,134 729,136 732,134 735,134 738,134 741,136 744,133 747,136 750,135 753,137 756,135 759,137 762,135 765,136 768,136"/>
  </g>
  <line x1="50" y1="250" x2="770" y2="250" stroke="#ccc" stroke-width="0.5"/>
  <text x="380" y="290" class="axis-label">Time</text>
</svg>