<svg xmlns="http://www.w3.org/2000/svg" width="800" height="300" viewBox="0 0 800 300">
  <style>
    .title { font: bold 14px sans-serif; fill: #333; }
    .legend-text { font: 11px sans-serif; }
    .phase-label { font: italic 10px sans-serif; fill: #555; }
  </style>
  <defs>
    <clipPath id="w3-clip"><rect x="50" y="20" width="720" height="230"/></clipPath>
  </defs>
  <rect width="800" height="300" fill="#f5f5f5" rx="4"/>
  <rect x="50" y="20" width="720" height="230" fill="white" stroke="#ddd" stroke-width="0.5"/>
  <text x="400" y="15" text-anchor="middle" class="title">3-Meter Walk Test — Two Walks with Turnaround</text>
  <line x1="560" y1="272" x2="575" y2="272" stroke="#d62728" stroke-width="1.5"/>
  <text x="578" y="276" class="legend-text">X</text>
  <line x1="600" y1="272" x2="615" y2="272" stroke="#1f77b4" stroke-width="1.5"/>
  <text x="618" y="276" class="legend-text">Y</text>
  <line x1="640" y1="272" x2="655" y2="272" stroke="#2ca02c" stroke-width="1.5"/>
  <text x="658" y="276" class="legend-text">Z</text>
  <rect x="133" y="20" width="424" height="230" fill="magenta" opacity="0.10"/>
  <polyline clip-path="url(#w3-clip)" fill="none" stroke="#d62728" stroke-width="1" opacity="0.9" points="50,126 52,127 54,123 56,127 58,126 60,126 62,126 64,126 66,126 68,124 70,124 72,127 74,126 76,126 78,127 80,126 82,124 84,126 86,123 88,126 90,127 92,127 94,126 96,127 98,125 100,123 102,123 104,127 106,125 108,124 110,125 112,126 114,125 116,127 118,125 120,126 122,127 124,126 126,126 128,127 130,123 132,123 134,125 136,126 138,124 140,126 145,125 146,121 147,133 148,125 149,125 150,126 151,136 152,131 153,121 154,121 155,123 156,115 157,123 158,131 159,131 160,130 161,112 162,117 163,115 164,120 165,127 166,128 167,126 168,130 169,135 170,121 171,124 172,126 173,121 174,134 175,131 176,126 177,121 178,121 179,118 180,122 181,128 182,135 183,124 184,122 185,114 186,119 187,119 188,129 189,132 190,129 191,126 192,125 193,120 194,115 195,122 196,127 197,126 198,132 199,146 200,124 201,120 202,119 203,118 204,120 205,131 206,136 207,127 208,126 209,126 210,116 211,117 212,124 213,134 214,127 215,128 216,128 217,115 218,117 219,127 220,131 221,129 222,129 223,133 224,121 225,119 226,125 227,123 228,122 229,134 230,134 231,137 232,119 233,122 234,120 235,119 236,132 237,136 238,129 239,137 240,127 241,117 242,122 243,143 244,128 245,132 246,116 247,131 248,106 249,120 250,126 251,124 252,112 253,133 254,134 255,125 256,123 257,118 258,120 259,122 260,130 261,128 262,127 263,128 264,125 265,118 266,116 267,129 268,131 269,113 270,130 271,122 272,118 273,121 274,127 275,122 276,128 277,136 278,130 279,118 280,120 281,123 282,123 283,128 284,131 285,127 286,128 287,125 288,119 289,119 290,122 291,134 292,120 293,130 294,126 295,121 296,117 297,121 298,126 299,126 300,133 301,129 302,124 303,119 304,118 305,125 306,125 307,140 308,131 309,127 310,123 315,123 316,124 317,121 318,124 319,125 320,124 321,126 322,125 323,122 324,122 325,125 326,126 327,125 328,130 329,129 330,133 331,135 332,131 333,131 334,134 335,133 336,131 337,131 338,129 339,128 340,123 341,124 342,123 343,117 344,118 345,116 346,117 347,115 348,114 349,115 350,120 351,118 352,118 353,121 354,123 355,122 356,125 357,127 358,129 359,124 360,126 361,128 362,127 363,126 364,124 365,127 370,111 371,119 372,122 373,125 374,126 375,127 376,147 377,125 378,118 379,121 380,120 381,122 382,125 383,132 384,130 385,126 386,129 387,123 388,119 389,126 390,132 391,124 392,133 393,131 394,123 395,119 396,124 397,124 398,126 399,133 400,135 401,135 402,121 403,118 404,124 405,107 406,128 407,136 408,125 409,121 410,125 411,117 412,115 413,125 414,128 415,128 416,128 417,126 418,120 419,120 420,125 421,126 422,123 423,133 424,134 425,126 426,130 427,124 428,120 429,124 430,131 431,132 432,127 433,121 434,121 435,117 436,121 437,125 438,135 439,126 440,131 441,127 442,118 443,115 444,128 445,127 446,128 447,132 448,132 449,119 450,117 451,121 452,120 453,109 454,134 455,132 456,127 457,118 458,119 459,121 460,121 461,128 462,136 463,125 464,130 465,136 466,109 467,119 468,124 469,132 470,132 471,131 472,124 473,116 474,117 475,121 476,127 477,130 478,132 479,127 480,118 481,118 482,121 483,116 484,123 485,134 486,130 487,122 488,124 489,120 490,118 491,124 492,131 493,132 494,126 495,145 496,111 497,116 498,121 499,127 500,129 501,129 502,132 503,128 504,116 505,124 506,118 507,117 508,127 509,130 510,129 511,121 512,124 513,123 514,115 515,125 516,133 517,141 518,125 519,128 520,123 521,116 522,123 523,124 524,127 525,129 526,130 527,128 528,117 529,120 530,119 531,122 532,131 533,133 534,130 535,122 536,124 537,122 538,122 539,125 540,136 545,125 547,126 549,127 551,127 553,123 555,124 557,127 559,123 561,123 563,126 565,125 567,125 569,123 571,126 573,125 575,124 577,125 579,127 581,125 583,124 585,127 587,126 589,125 591,125 593,125 595,123 597,123 599,126 601,127 603,127 605,126 607,126 609,127 611,126 613,127 615,127 617,124 619,126 621,126 623,125 625,127 627,126 629,125 631,123 633,127 635,123 637,126 639,127 641,124 643,127 645,127 647,127 649,123 651,124 653,123 655,127 657,124 659,124 661,126 663,123 665,127 667,125 669,126 671,126 673,125 675,127 677,126 679,125 681,126 683,127 685,125 687,126 689,124 691,127 693,126 695,127 697,125 699,126 701,123 703,124 705,124 707,127 709,126 711,126 713,126 715,127 717,125 719,123 721,126 723,123 725,127 727,126 729,124 731,127 733,126 735,123 737,124 739,127 741,124 743,123 745,124 747,123 749,126 751,126 753,124 755,125 757,124 759,124 761,127 763,125 765,125 767,124 769,124"/>
  <polyline clip-path="url(#w3-clip)" fill="none" stroke="#1f77b4" stroke-width="1" opacity="0.9" points="50,134 52,136 54,137 56,135 58,137 60,135 62,137 64,135 66,134 68,134 70,133 72,135 74,134 76,133 78,137 80,133 82,137 84,135 86,134 88,134 90,137 92,133 94,136 96,134 98,135 100,137 102,137 104,137 106,133 108,134 110,133 112,133 114,135 116,134 118,134 120,136 122,136 124,136 126,133 128,133 130,134 132,137 134,133 136,137 138,136 140,133 145,138 146,137 147,133 148,140 149,127 150,133 151,135 152,139 153,135 154,137 155,138 156,134 157,129 158,130 159,139 160,142 161,140 162,138 163,131 164,124 165,136 166,133 167,134 168,137 169,141 170,136 171,135 172,130 173,133 174,134 175,136 176,134 177,139 178,135 179,137 180,130 181,130 182,136 183,149 184,140 185,138 186,124 187,132 188,134 189,142 190,134 191,136 192,138 193,142 194,133 195,131 196,132 197,131 198,136 199,135 200,136 201,140 202,136 203,133 204,129 205,129 206,135 207,138 208,135 209,136 210,134 211,135 212,133 213,131 214,134 215,141 216,141 217,139 218,132 219,130 220,135 221,136 222,134 223,140 224,139 225,139 226,130 227,130 228,133 229,135 230,138 231,138 232,137 233,134 234,136 235,134 236,130 237,131 238,139 239,140 240,138 241,133 242,132 243,135 244,135 245,138 246,136 247,142 248,137 249,135 250,121 251,130 252,136 253,139 254,135 255,139 256,136 257,135 258,134 259,130 260,128 261,138 262,139 263,136 264,135 265,133 266,133 267,130 268,133 269,135 270,137 271,143 272,135 273,130 274,131 275,131 276,136 277,122 278,139 279,141 280,136 281,133 282,127 283,130 284,133 285,138 286,138 287,139 288,138 289,134 290,133 291,133 292,130 293,137 294,138 295,137 296,135 297,129 298,135 299,133 300,135 301,134 302,136 303,139 304,134 305,132 306,120 307,131 308,139 309,140 310,139 315,134 316,133 317,133 318,136 319,132 320,135 321,134 322,131 323,133 324,131 325,131 326,131 327,135 328,134 329,131 330,132 331,138 332,139 333,136 334,141 335,140 336,141 337,144 338,143 339,141 340,142 341,146 342,143 343,140 344,138 345,143 346,137 347,136 348,134 349,133 350,135 351,137 352,134 353,133 354,134 355,131 356,132 357,133 358,135 359,133 360,130 361,131 362,133 363,135 364,133 365,135 370,137 371,140 372,136 373,130 374,127 375,133 376,138 377,136 378,138 379,138 380,134 381,141 382,130 383,130 384,133 385,138 386,137 387,133 388,135 389,134 390,133 391,143 392,134 393,137 394,141 395,138 396,134 397,131 398,133 399,134 400,127 401,138 402,138 403,136 404,134 405,132 406,127 407,140 408,139 409,138 410,135 411,145 412,135 413,136 414,134 415,135 416,146 417,138 418,143 419,132 420,133 421,130 422,135 423,137 424,133 425,149 426,132 427,137 428,130 429,130 430,133 431,135 432,136 433,138 434,137 435,136 436,133 437,128 438,129 439,135 440,142 441,141 442,136 443,139 444,132 445,132 446,124 447,132 448,136 449,143 450,140 451,132 452,132 453,129 454,135 455,140 456,136 457,136 458,134 459,145 460,132 461,127 462,134 463,140 464,143 465,129 466,133 467,134 468,131 469,122 470,134 471,134 472,137 473,142 474,133 475,132 476,128 477,132 478,137 479,135 480,140 481,140 482,134 483,134 484,127 485,132 486,137 487,138 488,139 489,137 490,144 491,135 492,134 493,133 494,135 495,136 496,140 497,140 498,132 499,129 500,130 501,135 502,137 503,134 504,141 505,140 506,134 507,132 508,128 509,134 510,130 511,137 512,135 513,133 514,133 515,135 516,132 517,130 518,136 519,138 520,140 521,136 522,130 523,134 524,135 525,137 526,135 527,148 528,138 529,137 530,132 531,128 532,134 533,135 534,138 535,137 536,137 537,134 538,135 539,130 540,130 545,136 547,137 549,137 551,137 553,135 555,134 557,137 559,133 561,133 563,134 565,133 567,135 569,136 571,133 573,137 575,136 577,135 579,135 581,137 583,137 585,136 587,137 589,136 591,134 593,135 595,136 597,135 599,137 601,137 603,136 605,133 607,133 609,136 611,135 613,136 615,137 617,134 619,136 621,133 623,134 625,134 627,135 629,133 631,135 633,133 635,133 637,134 639,134 641,137 643,136 645,134 647,136 649,135 651,134 653,137 655,134 657,134 659,135 661,133 663,135 665,133 667,136 669,136 671,133 673,135 675,137 677,135 679,137 681,134 683,133 685,135 687,135 689,136 691,137 693,135 695,133 697,135 699,136 701,134 703,135 705,134 707,136 709,135 711,136 713,135 715,134 717,136 719,136 721,135 723,136 725,137 727,136 729,135 731,133 733,136 735,135 737,135 739,137 741,136 743,134 745,134 747,136 749,133 751,135 753,137 755,136 757,135 759,133 761,133 763,137 765,133 767,136 769,135"/>
  <polyline clip-path="url(#w3-clip)" fill="none" stroke="#2ca02c" stroke-width="1" opacity="0.9" points="50,143 52,141 54,140 56,144 58,141 60,142 62,144 64,142 66,140 68,141 70,140 72,141 74,144 76,142 78,142 80,144 82,143 84,141 86,140 88,140 90,144 92,141 94,140 96,141 98,142 100,141 102,144 104,143 106,142 108,143 110,141 112,144 114,142 116,143 118,144 120,144 122,144 124,143 126,144 128,144 130,143 132,144 134,141 136,143 138,142 140,143 145,150 146,138 147,146 148,139 149,138 150,138 151,132 152,140 153,145 154,146 155,143 156,140 157,129 158,135 159,136 160,138 161,159 162,148 163,157 164,147 165,145 166,138 167,136 168,143 169,141 170,129 171,149 172,149 173,146 174,137 175,139 176,137 177,140 178,141 179,146 180,153 181,144 182,129 183,139 184,138 185,134 186,137 187,144 188,134 189,146 190,146 191,148 192,139 193,137 194,141 195,152 196,142 197,144 198,152 199,142 200,135 201,137 202,143 203,137 204,142 205,146 206,153 207,147 208,138 209,140 210,136 211,135 212,137 213,145 214,159 215,143 216,147 217,147 218,137 219,131 220,140 221,135 222,141 223,142 224,148 225,144 226,136 227,135 228,143 229,137 230,142 231,151 232,151 233,144 234,139 235,144 236,138 237,138 238,140 239,145 240,146 241,147 242,144 243,145 244,143 245,136 246,137 247,142 248,147 249,141 250,147 251,148 252,139 253,133 254,142 255,142 256,142 257,146 258,150 259,148 260,143 261,141 262,129 263,138 264,133 265,154 266,144 267,145 268,147 269,143 270,139 271,133 272,140 273,146 274,147 275,143 276,144 277,149 278,138 279,134 280,123 281,137 282,137 283,139 284,153 285,150 286,144 287,138 288,143 289,139 290,148 291,142 292,146 293,142 294,146 295,146 296,146 297,137 298,132 299,143 300,145 301,146 302,150 303,152 304,142 305,137 306,140 307,144 308,127 309,143 310,149 315,145 316,146 317,141 318,142 319,146 320,141 321,143 322,147 323,145 324,142 325,145 326,146 327,146 328,146 329,142 330,144 331,143 332,142 333,144 334,143 335,139 336,140 337,138 338,138 339,137 340,136 341,136 342,136 343,135 344,133 345,135 346,136 347,136 348,135 349,136 350,138 351,138 352,137 353,142 354,143 355,140 356,144 357,141 358,144 359,140 360,143 361,142 362,140 363,140 364,145 365,142 370,144 371,153 372,141 373,133 374,141 375,142 376,140 377,140 378,145 379,146 380,139 381,140 382,144 383,138 384,137 385,144 386,149 387,150 388,142 389,148 390,142 391,134 392,135 393,143 394,147 395,140 396,143 397,145 398,142 399,133 400,137 401,142 402,138 403,144 404,148 405,147 406,140 407,139 408,142 409,141 410,133 411,139 412,150 413,150 414,147 415,132 416,142 417,141 418,134 419,151 420,141 421,143 422,146 423,136 424,143 425,137 426,139 427,146 428,137 429,140 430,149 431,151 432,145 433,141 434,144 435,137 436,123 437,138 438,147 439,135 440,141 441,146 442,145 443,141 444,136 445,140 446,146 447,140 448,158 449,145 450,150 451,137 452,137 453,138 454,142 455,141 456,143 457,153 458,148 459,128 460,140 461,154 462,138 463,134 464,144 465,150 466,145 467,148 468,142 469,139 470,135 471,140 472,147 473,137 474,145 475,149 476,151 477,127 478,138 479,141 480,141 481,137 482,141 483,149 484,145 485,138 486,142 487,142 488,140 489,134 490,147 491,150 492,148 493,144 494,143 495,139 496,135 497,136 498,146 499,142 500,142 501,145 502,146 503,139 504,136 505,138 506,138 507,141 508,141 509,151 510,145 511,127 512,139 513,142 514,135 515,137 516,141 517,145 518,149 519,140 520,142 521,142 522,138 523,121 524,142 525,156 526,142 527,149 528,145 529,144 530,138 531,138 532,139 533,141 534,138 535,148 536,149 537,145 538,138 539,144 540,138 545,140 547,143 549,144 551,143 553,142 555,144 557,142 559,141 561,144 563,140 565,144 567,141 569,143 571,142 573,141 575,143 577,142 579,144 581,144 583,140 585,140 587,140 589,144 591,140 593,144 595,140 597,142 599,143 601,142 603,140 605,142 607,141 609,141 611,142 613,141 615,140 617,143 619,144 621,141 623,143 625,142 627,140 629,144 631,142 633,140 635,141 637,140 639,141 641,140 643,140 645,140 647,143 649,143 651,140 653,142 655,143 657,140 659,144 661,140 663,143 665,142 667,142 669,140 671,143 673,144 675,142 677,144 679,144 681,140 683,144 685,144 687,142 689,141 691,141 693,141 695,141 697,142 699,143 701,141 703,140 705,144 707,144 709,140 711,143 713,143 715,143 717,143 719,141 721,143 723,141 725,144 727,141 729,143 731,144 733,140 735,143 737,144 739,141 741,142 743,142 745,141 747,142 749,141 751,142 753,141 755,142 757,143 759,141 761,144 763,144 765,140 767,141 769,144"/>
  <line x1="50" y1="250" x2="770" y2="250" stroke="#999" stroke-width="0.5"/>
  <text x="90" y="265" text-anchor="middle" class="phase-label">rest</text>
  <text x="225" y="265" text-anchor="middle" class="phase-label">walk out</text>
  <text x="340" y="265" text-anchor="middle" class="phase-label">turn</text>
  <text x="455" y="265" text-anchor="middle" class="phase-label">walk back</text>
  <text x="660" y="265" text-anchor="middle" class="phase-label">rest</text>
</svg>