<svg xmlns="http://www.w3.org/2000/svg" width="800" height="280" viewBox="0 0 800 280">
  <rect width="800" height="280" fill="#e8e8e8"/>

  <!-- Step label -->
  <text x="16" y="28" font-family="Arial, sans-serif" font-size="15" font-weight="bold" fill="#222">Step 2: Episode annotated</text>
  <text x="16" y="46" font-family="Arial, sans-serif" font-size="12" fill="#555">The cyan overlay marks the full Chair Stand episode</text>

  <!-- Axis area -->
  <line x1="60" y1="250" x2="760" y2="250" stroke="#999" stroke-width="1"/>
  <text x="60"  y="268" font-family="Arial, sans-serif" font-size="10" fill="#666" text-anchor="middle">0s</text>
  <text x="235" y="268" font-family="Arial, sans-serif" font-size="10" fill="#666" text-anchor="middle">5s</text>
  <text x="410" y="268" font-family="Arial, sans-serif" font-size="10" fill="#666" text-anchor="middle">10s</text>
  <text x="585" y="268" font-family="Arial, sans-serif" font-size="10" fill="#666" text-anchor="middle">15s</text>
  <text x="760" y="268" font-family="Arial, sans-serif" font-size="10" fill="#666" text-anchor="middle">20s</text>
  <line x1="60"  y1="250" x2="60"  y2="254" stroke="#999" stroke-width="1"/>
  <line x1="235" y1="250" x2="235" y2="254" stroke="#999" stroke-width="1"/>
  <line x1="410" y1="250" x2="410" y2="254" stroke="#999" stroke-width="1"/>
  <line x1="585" y1="250" x2="585" y2="254" stroke="#999" stroke-width="1"/>
  <line x1="760" y1="250" x2="760" y2="254" stroke="#999" stroke-width="1"/>

  <!-- Cyan episode overlay (~1.5s to ~18.5s) -->
  <rect x="112" y="55" width="596" height="195" fill="cyan" opacity="0.15" rx="2"/>

  <!-- X signal (maroon #800000) -->
  <polyline fill="none" stroke="#800000" stroke-width="1.5" stroke-linejoin="round"
    points="
      60,142 67,139 74,143 81,138 88,141 95,144 102,139 109,142 116,140 123,143 130,141
      135,128 140,108 145,155 150,90 155,175 160,85 165,180 170,95 175,165 180,100 185,170
      190,92 195,178 200,88 205,172 210,96 215,168 220,102 225,160 230,138 235,142
      240,140 245,143 250,138 255,141 260,144 265,139 270,142
      275,125 280,100 285,160 290,85 295,178 300,82 305,182 310,90 315,170 320,95
      325,175 330,88 335,180 340,92 345,172 350,98 355,165 360,105 365,158 370,140 375,142
      380,140 385,143 390,139 395,141 400,144 405,140 410,142
      415,130 420,105 425,165 430,88 435,180 440,84 445,185 450,92 455,168 460,97
      465,172 470,90 475,178 480,94 485,170 490,100 495,162 500,108 505,155 510,138 515,141
      520,143 525,139 530,142 535,140 540,143 545,139 550,141
      555,128 560,102 565,162 570,86 575,176 580,84 585,180 590,92 595,168 600,96
      605,174 610,88 615,178 620,94 625,170 630,100 635,162 640,108 645,155 650,140 655,142
      660,139 665,144 670,138 675,143 680,140 685,142 690,141
      695,143 700,139 705,142 710,140 715,143 720,138 725,141 730,144 735,139 740,142
      745,140 750,143 755,139 760,141
    "/>

  <!-- Y signal (teal #7EBEC5) -->
  <polyline fill="none" stroke="#7EBEC5" stroke-width="1.5" stroke-linejoin="round"
    points="
      60,138 67,143 74,136 81,144 88,137 95,141 102,136 109,143 116,137 123,140 130,138
      135,118 140,158 145,95 150,172 155,82 160,178 165,88 170,170 175,98 180,162
      185,105 190,168 195,92 200,175 205,85 210,170 215,100 220,158 225,110 230,140 235,138
      240,136 245,141 250,137 255,143 260,136 265,140 270,138
      275,115 280,162 285,90 290,175 295,80 300,180 305,85 310,172 315,95 320,165
      325,100 330,170 335,88 340,178 345,85 350,168 355,102 360,160 365,112 370,138 375,137
      380,142 385,136 390,143 395,137 400,140 405,136 410,138
      415,120 420,160 425,92 430,175 435,82 440,182 445,86 450,170 455,98 460,162
      465,104 470,168 475,90 480,176 485,86 490,168 495,102 500,158 505,115 510,140 515,138
      520,136 525,142 530,137 535,143 540,136 545,140 550,138
      555,118 560,160 565,92 570,174 575,84 580,180 585,88 590,170 595,96 600,164
      605,102 610,170 615,88 620,176 625,86 630,168 635,102 640,158 645,114 650,138 655,137
      660,142 665,136 670,143 675,137 680,140 685,138 690,137
      695,140 700,136 705,142 710,137 715,140 720,136 725,143 730,137 735,141 740,136
      745,142 750,137 755,141 760,138
    "/>

  <!-- Z signal (gray #58595b) -->
  <polyline fill="none" stroke="#58595b" stroke-width="1.5" stroke-linejoin="round"
    points="
      60,140 67,137 74,142 81,136 88,143 95,138 102,142 109,137 116,141 123,137 130,140
      135,160 140,112 145,170 150,98 155,180 160,92 165,175 170,100 175,168 180,108
      185,158 190,115 195,165 200,95 205,180 210,90 215,172 220,105 225,158 230,140 235,139
      240,142 245,137 250,141 255,136 260,142 265,138 270,140
      275,158 280,108 285,172 290,92 295,182 300,88 305,178 310,98 315,168 320,108
      325,158 330,112 335,170 340,95 345,180 350,90 355,172 360,102 365,160 370,140 375,139
      380,137 385,142 390,136 395,142 400,137 405,141 410,140
      415,158 420,112 425,170 430,95 435,182 440,88 445,178 450,100 455,168 460,108
      465,160 470,112 475,172 480,92 485,180 490,88 495,172 500,102 505,158 510,140 515,139
      520,137 525,142 530,138 535,141 540,137 545,142 550,140
      555,160 560,110 565,172 570,94 575,180 580,90 585,176 590,100 595,168 600,108
      605,160 610,112 615,170 620,94 625,180 630,90 635,172 640,102 645,158 650,140 655,139
      660,141 665,137 670,142 675,136 680,141 685,140 690,139
      695,137 700,142 705,138 710,141 715,137 720,142 725,138 730,141 735,137 740,142
      745,138 750,141 755,137 760,140
    "/>

</svg>