<svg xmlns="http://www.w3.org/2000/svg" width="800" height="300" viewBox="0 0 800 300">
  <style>
    .title { font: bold 14px sans-serif; fill: #333; }
    .instruction { font: 12px sans-serif; fill: #800000; }
    .legend-text { font: 11px sans-serif; }
    .seg-label { font: bold 10px sans-serif; fill: #555; }
  </style>
  <defs>
    <clipPath id="s3-plot"><rect x="50" y="20" width="720" height="230"/></clipPath>
    <!-- Diagonal hatch pattern for segments -->
    <pattern id="seg-hatch" patternUnits="userSpaceOnUse" width="8" height="8" patternTransform="rotate(45)">
      <line x1="0" y1="0" x2="0" y2="8" stroke="#008080" stroke-width="1.5" opacity="0.4"/>
    </pattern>
  </defs>
  <rect width="800" height="300" fill="#f5f5f5" rx="4"/>
  <rect x="50" y="20" width="720" height="230" fill="white" stroke="#ddd" stroke-width="0.5"/>
  <text x="60" y="16" class="title">Step 3: Add segment markers for each repetition</text>
  <line x1="580" y1="12" x2="600" y2="12" stroke="#800000" stroke-width="2"/>
  <text x="603" y="16" class="legend-text" fill="#800000">X</text>
  <line x1="630" y1="12" x2="650" y2="12" stroke="#7EBEC5" stroke-width="2"/>
  <text x="653" y="16" class="legend-text" fill="#7EBEC5">Y</text>
  <line x1="700" y1="12" x2="720" y2="12" stroke="#58595b" stroke-width="2"/>
  <text x="723" y="16" class="legend-text" fill="#58595b">Z</text>
  <line x1="50" y1="135" x2="770" y2="135" stroke="#eee" stroke-width="0.5"/>
  <!-- Cyan episode overlay -->
  <rect x="135" y="20" width="530" height="230" fill="cyan" opacity="0.12"/>
  <!-- 5 segment hatched overlays — one per rep -->
  <rect x="140" y="22" width="80" height="226" fill="url(#seg-hatch)" stroke="#008080" stroke-width="1" stroke-dasharray="3,2" opacity="0.7"/>
  <rect x="250" y="22" width="80" height="226" fill="url(#seg-hatch)" stroke="#008080" stroke-width="1" stroke-dasharray="3,2" opacity="0.7"/>
  <rect x="360" y="22" width="80" height="226" fill="url(#seg-hatch)" stroke="#008080" stroke-width="1" stroke-dasharray="3,2" opacity="0.7"/>
  <rect x="470" y="22" width="80" height="226" fill="url(#seg-hatch)" stroke="#008080" stroke-width="1" stroke-dasharray="3,2" opacity="0.7"/>
  <rect x="580" y="22" width="80" height="226" fill="url(#seg-hatch)" stroke="#008080" stroke-width="1" stroke-dasharray="3,2" opacity="0.7"/>
  <!-- Segment labels -->
  <text x="168" y="268" class="seg-label">seg 1</text>
  <text x="278" y="268" class="seg-label">seg 2</text>
  <text x="388" y="268" class="seg-label">seg 3</text>
  <text x="498" y="268" class="seg-label">seg 4</text>
  <text x="608" y="268" class="seg-label">seg 5</text>
  <!-- Signal traces -->
  <g clip-path="url(#s3-plot)">
    <polyline fill="none" stroke="#800000" stroke-width="1.3" opacity="0.85" stroke-linejoin="round"
      points="50,136 53,134 56,137 59,133 62,133 65,135 68,136 71,136 74,137 77,133 80,136 83,137 86,136 89,135 92,134 95,134 98,136 101,134 104,136 107,136 110,137 113,136 116,134 119,134 122,137 125,135 128,134 140,135 142,127 144,119 146,111 148,103 150,96 152,89 154,85 156,81 158,79 160,79 162,79 164,79 166,80 168,80 170,79 172,77 174,74 176,69 178,65 180,60 182,56 184,52 186,50 188,49 190,51 192,54 194,59 196,65 198,71 200,79 202,86 204,93 206,99 208,104 210,109 212,113 214,118 216,122 218,128 220,135 222,135 225,138 228,133 231,136 234,132 237,137 240,134 243,133 246,133 250,135 252,127 254,118 256,110 258,103 260,96 262,90 264,86 266,84 268,83 270,82 272,82 274,82 276,82 278,80 280,78 282,75 284,70 286,66 288,60 290,56 292,52 294,49 296,48 298,49 300,51 302,56 304,61 306,68 308,75 310,82 312,89 314,95 316,100 318,104 320,108 322,112 324,117 326,122 328,128 330,135 332,133 335,136 338,136 341,135 344,137 347,133 350,136 353,135 356,133 360,135 362,127 364,118 366,110 368,103 370,97 372,92 374,89 376,87 378,86 380,85 382,85 384,84 386,82 388,80 390,76 392,72 394,67 396,61 398,56 400,52 402,48 404,47 406,47 408,49 410,53 412,58 414,65 416,72 418,79 420,85 422,91 424,96 426,100 428,104 430,108 432,111 434,116 436,121 438,127 440,135 442,138 445,136 448,136 451,137 454,132 457,132 460,133 463,134 466,134 470,135 472,126 474,118 476,110 478,104 480,98 482,94 484,91 486,90 488,88 490,88 492,86 494,85 496,82 498,78 500,73 502,68 504,62 506,57 508,52 510,48 512,46 514,46 516,48 518,51 520,56 522,62 524,69 526,75 528,82 530,88 532,92 534,97 536,100 538,103 540,106 542,110 544,114 546,120 548,127 550,135 552,138 555,133 558,137 561,137 564,134 567,135 570,136 573,135 576,133 580,135 582,126 584,118 586,111 588,105 590,100 592,96 594,94 596,92 598,91 600,89 602,87 604,84 606,80 608,75 610,70 612,64 614,58 616,53 618,49 620,46 622,45 624,46 626,49 628,54 630,60 632,66 634,73 636,79 638,84 640,89 642,93 644,96 646,99 648,102 650,105 652,108 654,113 656,119 658,127 660,135 660,135 663,134 666,135 669,137 672,135 675,134 678,134 681,134 684,136 687,134 690,137 693,137 696,134 699,134 702,137 705,133 708,136 711,133 714,134 717,136 720,134 723,134 726,134 729,136 732,133 735,134 738,135 741,136 744,134 747,135 750,135 753,135 756,137 759,135 762,136 765,136 768,136"/>
    <polyline fill="none" stroke="#58595b" stroke-width="1.3" opacity="0.85" stroke-linejoin="round"
      points="50,134 53,136 56,135 59,135 62,136 65,135 68,136 71,134 74,133 77,135 80,135 83,135 86,136 89,133 92,133 95,134 98,134 101,137 104,134 107,135 110,135 113,136 116,134 119,137 122,136 125,135 128,135 140,135 142,143 144,151 146,157 148,162 150,165 152,166 154,167 156,168 158,168 160,170 162,174 164,178 166,185 168,192 170,200 172,207 174,213 176,216 178,218 180,216 182,213 184,207 186,200 188,193 190,186 192,181 194,177 196,175 198,174 200,175 202,176 204,176 206,176 208,174 210,170 212,165 214,158 216,150 218,142 220,135 222,137 225,136 228,134 231,137 234,133 237,135 240,135 243,134 246,136 250,135 252,143 254,150 256,156 258,160 260,163 262,165 264,165 266,166 268,168 270,171 272,175 274,181 276,188 278,195 280,203 282,210 284,215 286,217 288,217 290,215 292,210 294,203 296,196 298,190 300,184 302,179 304,176 306,175 308,176 310,177 312,178 314,178 316,178 318,175 320,171 322,165 324,158 326,150 328,142 330,135 332,134 335,135 338,133 341,135 344,135 347,136 350,135 353,135 356,136 360,135 362,143 364,150 366,155 368,159 370,162 372,163 374,164 376,165 378,168 380,172 382,177 384,183 386,191 388,199 390,206 392,212 394,216 396,217 398,216 400,212 402,207 404,200 406,193 408,187 410,182 412,178 414,176 416,176 418,178 420,179 422,180 424,181 426,179 428,176 430,171 432,165 434,157 436,149 438,142 440,135 442,136 445,133 448,135 451,133 454,136 457,133 460,134 463,136 466,135 470,135 472,143 474,149 476,154 478,158 480,160 482,162 484,163 486,165 488,168 490,173 492,179 494,186 496,194 498,202 500,208 502,213 504,216 506,216 508,214 510,209 512,203 514,196 516,190 518,184 520,180 522,178 524,177 526,178 528,180 530,182 532,183 534,183 536,181 538,177 540,171 542,164 544,157 546,149 548,142 550,135 552,136 555,136 558,134 561,136 564,136 567,134 570,135 573,134 576,133 580,135 582,143 584,149 586,153 588,157 590,159 592,160 594,162 596,165 598,169 600,175 602,182 604,189 606,197 608,204 610,210 612,214 614,216 616,215 618,211 620,206 622,200 624,193 626,187 628,182 630,179 632,178 634,179 636,180 638,183 640,184 642,185 644,185 646,182 648,177 650,171 652,164 654,156 656,148 658,141 660,134 660,135 663,134 666,135 669,135 672,137 675,136 678,136 681,135 684,135 687,134 690,135 693,137 696,137 699,135 702,136 705,135 708,135 711,133 714,134 717,134 720,136 723,137 726,135 729,135 732,134 735,134 738,136 741,136 744,134 747,134 750,135 753,133 756,136 759,134 762,134 765,134 768,134"/>
  </g>
  <line x1="50" y1="250" x2="770" y2="250" stroke="#ccc" stroke-width="0.5"/>
  <text x="130" y="285" class="instruction">Each sit-to-stand cycle is marked as a segment (diagonal stripes)</text>
</svg>