<svg xmlns="http://www.w3.org/2000/svg" width="800" height="280" viewBox="0 0 800 280">
  <defs>
    <!-- Diagonal hatch pattern -->
    <pattern id="hatch" width="6" height="6" patternUnits="userSpaceOnUse" patternTransform="rotate(45)">
      <line x1="0" y1="0" x2="0" y2="6" stroke="#333" stroke-width="0.8" opacity="0.3"/>
    </pattern>
  </defs>

  <rect width="800" height="280" fill="#e8e8e8"/>

  <!-- Step label -->
  <text x="16" y="28" font-family="Arial, sans-serif" font-size="15" font-weight="bold" fill="#222">Step 3: Add segment markers</text>
  <text x="16" y="46" font-family="Arial, sans-serif" font-size="12" fill="#555">Select each repetition individually and click 'Segment'</text>

  <!-- Axis area -->
  <line x1="60" y1="250" x2="760" y2="250" stroke="#999" stroke-width="1"/>
  <text x="60"  y="268" font-family="Arial, sans-serif" font-size="10" fill="#666" text-anchor="middle">0s</text>
  <text x="235" y="268" font-family="Arial, sans-serif" font-size="10" fill="#666" text-anchor="middle">5s</text>
  <text x="410" y="268" font-family="Arial, sans-serif" font-size="10" fill="#666" text-anchor="middle">10s</text>
  <text x="585" y="268" font-family="Arial, sans-serif" font-size="10" fill="#666" text-anchor="middle">15s</text>
  <text x="760" y="268" font-family="Arial, sans-serif" font-size="10" fill="#666" text-anchor="middle">20s</text>
  <line x1="60"  y1="250" x2="60"  y2="254" stroke="#999" stroke-width="1"/>
  <line x1="235" y1="250" x2="235" y2="254" stroke="#999" stroke-width="1"/>
  <line x1="410" y1="250" x2="410" y2="254" stroke="#999" stroke-width="1"/>
  <line x1="585" y1="250" x2="585" y2="254" stroke="#999" stroke-width="1"/>
  <line x1="760" y1="250" x2="760" y2="254" stroke="#999" stroke-width="1"/>

  <!-- Cyan episode overlay (~1.5s to ~18.5s) -->
  <rect x="112" y="55" width="596" height="195" fill="cyan" opacity="0.15" rx="2"/>

  <!-- Segment 1: burst ~3-4.5s => x~165-218 -->
  <rect x="160" y="65" width="65" height="180" fill="url(#hatch)" stroke="#555" stroke-width="1" stroke-dasharray="3,2" rx="2"/>
  <text x="192" y="60" font-family="Arial, sans-serif" font-size="12" font-weight="bold" fill="#444" text-anchor="middle">1</text>

  <!-- Segment 2: burst ~5.5-7s => x~253-305 -->
  <rect x="248" y="65" width="65" height="180" fill="url(#hatch)" stroke="#555" stroke-width="1" stroke-dasharray="3,2" rx="2"/>
  <text x="280" y="60" font-family="Arial, sans-serif" font-size="12" font-weight="bold" fill="#444" text-anchor="middle">2</text>

  <!-- Segment 3: burst ~8-9.5s => x~340-392 -->
  <rect x="335" y="65" width="65" height="180" fill="url(#hatch)" stroke="#555" stroke-width="1" stroke-dasharray="3,2" rx="2"/>
  <text x="367" y="60" font-family="Arial, sans-serif" font-size="12" font-weight="bold" fill="#444" text-anchor="middle">3</text>

  <!-- Segment 4: burst ~10.5-12s => x~428-480 -->
  <rect x="423" y="65" width="65" height="180" fill="url(#hatch)" stroke="#555" stroke-width="1" stroke-dasharray="3,2" rx="2"/>
  <text x="455" y="60" font-family="Arial, sans-serif" font-size="12" font-weight="bold" fill="#444" text-anchor="middle">4</text>

  <!-- X signal (maroon #800000) -->
  <polyline fill="none" stroke="#800000" stroke-width="1.5" stroke-linejoin="round"
    points="60,130 67,131 74,131 81,131 88,129 95,129 102,129 109,131 117,130 124,131 131,131 138,130 145,131 152,131 159,130 166,129 173,156 180,104 187,135 194,164 201,95 208,122 216,132 223,131 230,129 237,130 244,131 251,131 258,130 265,166 272,104 279,125 286,136 293,119 300,125 307,130 315,129 322,130 329,129 336,130 343,122 350,139 357,167 364,123 371,115 378,126 385,141 392,130 399,130 406,130 414,130 421,131 428,130 435,119 442,135 449,148 456,143 463,94 470,126 477,138 484,129 491,130 498,130 505,129 513,129 520,134 527,139 534,128 541,134 548,156 555,96 562,128 569,129 576,131 583,130 590,130 597,129 604,130 612,131 619,131 626,130 633,131 640,130 647,129 654,130 661,131 668,128 675,130 682,131 689,131 696,131 703,130 711,129 718,130 725,131 732,130 739,129 746,130 753,129 760,129"/>

  <!-- Y signal (teal #7EBEC5) -->
  <polyline fill="none" stroke="#7EBEC5" stroke-width="1.5" stroke-linejoin="round"
    points="60,131 67,130 74,131 81,130 88,130 95,129 102,130 109,130 117,131 124,130 131,130 138,129 145,130 152,129 159,130 166,131 173,128 180,128 187,133 194,135 201,113 208,134 216,132 223,130 230,130 237,130 244,130 251,131 258,135 265,133 272,115 279,132 286,135 293,116 300,134 307,129 315,130 322,129 329,130 336,131 343,129 350,135 357,139 364,107 371,132 378,138 385,124 392,130 399,129 406,131 414,130 421,130 428,130 435,125 442,135 449,142 456,105 463,133 470,136 477,128 484,130 491,131 498,129 505,130 513,131 520,136 527,121 534,136 541,141 548,107 555,134 562,134 569,130 576,131 583,131 590,129 597,129 604,131 612,129 619,129 626,129 633,129 640,130 647,130 654,130 661,129 668,130 675,129 682,129 689,130 696,130 703,131 711,131 718,129 725,130 732,130 739,130 746,131 753,130 760,129"/>

  <!-- Z signal (gray #58595b) -->
  <polyline fill="none" stroke="#58595b" stroke-width="1.5" stroke-linejoin="round"
    points="60,130 67,130 74,129 81,131 88,131 95,131 102,131 109,131 117,131 124,130 131,129 138,129 145,130 152,130 159,129 166,132 173,114 180,147 187,133 194,84 201,158 208,144 216,128 223,131 230,130 237,129 244,131 251,130 258,139 265,94 272,150 279,134 286,107 293,145 300,136 307,129 315,130 322,131 329,129 336,129 343,137 350,140 357,89 364,135 371,135 378,129 385,130 392,130 399,129 406,130 414,130 421,129 428,130 435,145 442,137 449,103 456,123 463,143 470,140 477,125 484,129 491,130 498,131 505,131 513,130 520,124 527,135 534,135 541,120 548,108 555,152 562,140 569,131 576,130 583,129 590,130 597,131 604,130 612,131 619,131 626,131 633,130 640,130 647,131 654,129 661,129 668,131 675,129 682,131 689,131 696,130 703,129 711,130 718,130 725,130 732,131 739,131 746,130 753,130 760,129"/>

</svg>