<svg xmlns="http://www.w3.org/2000/svg" width="800" height="400" viewBox="0 0 800 400">
  <defs>
    <!-- Cross-hatch pattern for segment markers -->
    <pattern id="crosshatch" width="8" height="8" patternUnits="userSpaceOnUse" patternTransform="rotate(45)">
      <line x1="0" y1="0" x2="0" y2="8" stroke="#555" stroke-width="1" opacity="0.5"/>
    </pattern>
    <!-- Dot pattern for scoring flag -->
    <pattern id="dots" width="6" height="6" patternUnits="userSpaceOnUse">
      <circle cx="3" cy="3" r="1.5" fill="#2a7a2a" opacity="0.6"/>
    </pattern>
    <!-- Spiral/ring pattern for review flag -->
    <pattern id="rings" width="10" height="10" patternUnits="userSpaceOnUse">
      <circle cx="5" cy="5" r="3" fill="none" stroke="#b03030" stroke-width="1" opacity="0.55"/>
    </pattern>
    <!-- Arrowhead marker -->
    <marker id="arrowhead" markerWidth="8" markerHeight="6" refX="8" refY="3" orient="auto">
      <path d="M0,0 L8,3 L0,6 Z" fill="#333"/>
    </marker>
  </defs>

  <!-- Background -->
  <rect width="800" height="400" fill="#e8e8e8" rx="4"/>

  <!-- Plot area -->
  <rect x="60" y="30" width="680" height="260" fill="#fff" stroke="#bbb" stroke-width="1" rx="2"/>

  <!-- Y-axis label -->
  <text x="18" y="165" font-family="Arial, sans-serif" font-size="11" fill="#444" text-anchor="middle" transform="rotate(-90,18,165)">Acceleration (g)</text>

  <!-- X-axis label -->
  <text x="400" y="308" font-family="Arial, sans-serif" font-size="11" fill="#444" text-anchor="middle">Time (seconds)</text>

  <!-- Y-axis ticks -->
  <text x="55" y="50" font-family="Arial, sans-serif" font-size="9" fill="#666" text-anchor="end">1.5</text>
  <text x="55" y="105" font-family="Arial, sans-serif" font-size="9" fill="#666" text-anchor="end">1.0</text>
  <text x="55" y="165" font-family="Arial, sans-serif" font-size="9" fill="#666" text-anchor="end">0.5</text>
  <text x="55" y="225" font-family="Arial, sans-serif" font-size="9" fill="#666" text-anchor="end">0.0</text>
  <text x="55" y="280" font-family="Arial, sans-serif" font-size="9" fill="#666" text-anchor="end">-0.5</text>

  <!-- Grid lines -->
  <line x1="60" y1="46" x2="740" y2="46" stroke="#eee" stroke-width="0.5"/>
  <line x1="60" y1="101" x2="740" y2="101" stroke="#eee" stroke-width="0.5"/>
  <line x1="60" y1="161" x2="740" y2="161" stroke="#ddd" stroke-width="0.5"/>
  <line x1="60" y1="221" x2="740" y2="221" stroke="#eee" stroke-width="0.5"/>
  <line x1="60" y1="276" x2="740" y2="276" stroke="#eee" stroke-width="0.5"/>

  <!-- ==================== -->
  <!-- EPISODE ANNOTATION: large cyan overlay spanning all 5 reps -->
  <!-- ==================== -->
  <rect x="90" y="35" width="620" height="250" fill="#00bcd4" opacity="0.12" rx="3"/>

  <!-- ==================== -->
  <!-- SEGMENT OVERLAYS (5 reps, cross-hatch) -->
  <!-- ==================== -->
  <!-- Segment 1 -->
  <rect x="100" y="55" width="100" height="210" fill="url(#crosshatch)" opacity="0.5" rx="2"/>
  <rect x="100" y="55" width="100" height="210" fill="#00bcd4" opacity="0.08" rx="2"/>
  <!-- Segment 2 -->
  <rect x="220" y="55" width="100" height="210" fill="url(#crosshatch)" opacity="0.5" rx="2"/>
  <rect x="220" y="55" width="100" height="210" fill="#00bcd4" opacity="0.08" rx="2"/>
  <!-- Segment 3 (scoring flag) -->
  <rect x="340" y="55" width="100" height="210" fill="url(#crosshatch)" opacity="0.5" rx="2"/>
  <rect x="340" y="55" width="100" height="210" fill="url(#dots)" opacity="0.7" rx="2"/>
  <rect x="340" y="55" width="100" height="210" fill="#2a7a2a" opacity="0.08" rx="2"/>
  <!-- Segment 4 -->
  <rect x="460" y="55" width="100" height="210" fill="url(#crosshatch)" opacity="0.5" rx="2"/>
  <rect x="460" y="55" width="100" height="210" fill="#00bcd4" opacity="0.08" rx="2"/>
  <!-- Segment 5 (review flag) -->
  <rect x="580" y="55" width="100" height="210" fill="url(#crosshatch)" opacity="0.5" rx="2"/>
  <rect x="580" y="55" width="100" height="210" fill="url(#rings)" opacity="0.7" rx="2"/>
  <rect x="580" y="55" width="100" height="210" fill="#b03030" opacity="0.06" rx="2"/>

  <!-- Segment labels along the bottom of the plot -->
  <text x="150" y="280" font-family="Arial, sans-serif" font-size="9" fill="#555" text-anchor="middle">1</text>
  <text x="270" y="280" font-family="Arial, sans-serif" font-size="9" fill="#555" text-anchor="middle">2</text>
  <text x="390" y="280" font-family="Arial, sans-serif" font-size="9" fill="#555" text-anchor="middle">3</text>
  <text x="510" y="280" font-family="Arial, sans-serif" font-size="9" fill="#555" text-anchor="middle">4</text>
  <text x="630" y="280" font-family="Arial, sans-serif" font-size="9" fill="#555" text-anchor="middle">5</text>

  <!-- ==================== -->
  <!-- SIGNAL TRACES -->
  <!-- Rep shape: sit → stand → sit, with characteristic acceleration peaks -->
  <!-- ==================== -->

  <!-- X-axis signal (dark red #800000) -->
  <polyline fill="none" stroke="#800000" stroke-width="1.8" opacity="0.85" points="
    90,180
    100,178 108,170 115,140 122,110 128,85 133,100 138,135 145,160 155,175 165,182 175,185 190,183
    200,180
    210,178 218,168 225,135 232,105 238,80 243,95 248,130 255,158 265,173 275,181 285,184 300,182
    310,180
    320,177 328,165 335,130 342,100 348,75 353,92 358,128 365,155 375,172 385,180 395,183 410,181
    420,180
    430,177 438,166 445,133 452,103 458,78 463,94 468,130 475,157 485,173 495,181 505,184 520,182
    530,180
    540,176 548,162 556,128 563,98 568,72 574,88 580,125 588,155 598,172 608,180 620,184 640,183
    660,181 680,180 700,180
  "/>

  <!-- Y-axis signal (teal #7EBEC5) -->
  <polyline fill="none" stroke="#7EBEC5" stroke-width="1.8" opacity="0.85" points="
    90,160
    100,158 108,150 115,130 122,155 128,190 133,210 138,195 145,170 155,160 165,158 175,157 190,159
    200,160
    210,157 218,148 225,128 232,158 238,195 243,215 248,198 255,172 265,160 275,157 285,156 300,158
    310,160
    320,156 328,145 335,125 342,155 348,192 353,218 358,200 365,173 375,160 385,156 395,155 410,157
    420,160
    430,156 438,146 445,127 452,157 458,193 463,216 468,199 475,173 485,160 495,157 505,156 520,158
    530,160
    540,155 548,143 556,122 563,153 568,190 574,220 580,202 588,174 598,161 608,157 620,156 640,158
    660,159 680,160 700,160
  "/>

  <!-- Z-axis signal (dark gray #58595b) -->
  <polyline fill="none" stroke="#58595b" stroke-width="1.8" opacity="0.85" points="
    90,200
    100,198 108,190 115,170 122,200 128,230 133,245 138,230 145,210 155,200 165,198 175,200 190,201
    200,200
    210,197 218,188 225,168 232,198 238,232 243,248 248,232 255,212 265,200 275,198 285,199 300,200
    310,200
    320,196 328,186 335,165 342,195 348,230 353,250 358,234 365,213 375,201 385,198 395,199 410,200
    420,200
    430,196 438,187 445,167 452,197 458,232 463,249 468,233 475,213 485,201 495,198 505,199 520,200
    530,200
    540,195 548,184 556,162 563,193 568,228 574,252 580,236 588,215 598,202 608,198 620,199 640,200
    660,200 680,200 700,200
  "/>

  <!-- ==================== -->
  <!-- CALLOUT LABELS WITH ARROWS -->
  <!-- ==================== -->

  <!-- 1. Episode annotation callout -->
  <rect x="62" y="320" width="220" height="22" fill="#fff" stroke="#00838f" stroke-width="1" rx="3" opacity="0.92"/>
  <text x="172" y="335" font-family="Arial, sans-serif" font-size="11" font-weight="bold" fill="#00838f" text-anchor="middle">Episode annotation (Chairstand)</text>
  <line x1="172" y1="320" x2="172" y2="290" stroke="#333" stroke-width="1" marker-end="url(#arrowhead)"/>

  <!-- 2. Segment 1-5 callout -->
  <rect x="280" y="320" width="100" height="22" fill="#fff" stroke="#555" stroke-width="1" rx="3" opacity="0.92"/>
  <text x="330" y="335" font-family="Arial, sans-serif" font-size="11" font-weight="bold" fill="#555" text-anchor="middle">Segments 1-5</text>
  <line x1="330" y1="320" x2="270" y2="275" stroke="#333" stroke-width="1" marker-end="url(#arrowhead)"/>

  <!-- 3. Selected for scoring callout (points to segment 3) -->
  <rect x="375" y="356" width="145" height="22" fill="#fff" stroke="#2a7a2a" stroke-width="1" rx="3" opacity="0.92"/>
  <text x="447" y="371" font-family="Arial, sans-serif" font-size="11" font-weight="bold" fill="#2a7a2a" text-anchor="middle">Selected for scoring</text>
  <line x1="420" y1="356" x2="395" y2="270" stroke="#333" stroke-width="1" marker-end="url(#arrowhead)"/>

  <!-- 4. Flagged for review callout (points to segment 5) -->
  <rect x="585" y="320" width="145" height="22" fill="#fff" stroke="#b03030" stroke-width="1" rx="3" opacity="0.92"/>
  <text x="657" y="335" font-family="Arial, sans-serif" font-size="11" font-weight="bold" fill="#b03030" text-anchor="middle">Flagged for review</text>
  <line x1="640" y1="320" x2="635" y2="270" stroke="#333" stroke-width="1" marker-end="url(#arrowhead)"/>

  <!-- ==================== -->
  <!-- LEGEND -->
  <!-- ==================== -->
  <rect x="555" y="36" width="180" height="62" fill="#fff" stroke="#ccc" stroke-width="0.8" rx="3" opacity="0.93"/>
  <line x1="563" y1="52" x2="583" y2="52" stroke="#800000" stroke-width="2"/>
  <text x="588" y="56" font-family="Arial, sans-serif" font-size="10" fill="#444">X-axis</text>
  <line x1="563" y1="68" x2="583" y2="68" stroke="#7EBEC5" stroke-width="2"/>
  <text x="588" y="72" font-family="Arial, sans-serif" font-size="10" fill="#444">Y-axis</text>
  <line x1="563" y1="84" x2="583" y2="84" stroke="#58595b" stroke-width="2"/>
  <text x="588" y="88" font-family="Arial, sans-serif" font-size="10" fill="#444">Z-axis</text>

  <!-- Pattern legend items -->
  <rect x="640" y="44" width="14" height="14" fill="url(#crosshatch)" stroke="#999" stroke-width="0.5"/>
  <text x="658" y="55" font-family="Arial, sans-serif" font-size="9" fill="#444">Segment</text>
  <rect x="640" y="60" width="14" height="14" fill="url(#dots)" stroke="#999" stroke-width="0.5"/>
  <text x="658" y="71" font-family="Arial, sans-serif" font-size="9" fill="#444">Scoring</text>
  <rect x="640" y="76" width="14" height="14" fill="url(#rings)" stroke="#999" stroke-width="0.5"/>
  <text x="658" y="87" font-family="Arial, sans-serif" font-size="9" fill="#444">Review</text>

  <!-- Title -->
  <text x="400" y="20" font-family="Arial, sans-serif" font-size="14" font-weight="bold" fill="#333" text-anchor="middle">Chair Stand Test — Annotation Workflow</text>
</svg>