<svg xmlns="http://www.w3.org/2000/svg" width="800" height="400" viewBox="0 0 800 400">
  <style>
    .title { font: bold 14px sans-serif; fill: #333; }
    .step-label { font: bold 12px sans-serif; fill: #800000; }
    .desc { font: 11px sans-serif; fill: #555; }
    .legend-text { font: 11px sans-serif; }
  </style>
  <defs>
    <clipPath id="wf-clip"><rect x="50" y="40" width="720" height="180"/></clipPath>
    <pattern id="wf-hatch" patternUnits="userSpaceOnUse" width="8" height="8" patternTransform="rotate(45)">
      <line x1="0" y1="0" x2="0" y2="8" stroke="#008080" stroke-width="1.5" opacity="0.4"/>
    </pattern>
    <pattern id="wf-dots" patternUnits="userSpaceOnUse" width="8" height="8">
      <circle cx="4" cy="4" r="1.5" fill="#b8860b" opacity="0.5"/>
    </pattern>
  </defs>
  <rect width="800" height="400" fill="#f5f5f5" rx="4"/>
  <rect x="50" y="40" width="720" height="180" fill="white" stroke="#ddd" stroke-width="0.5"/>
  <text x="60" y="30" class="title">Chair Stand Annotation Workflow — Complete Example</text>
  <!-- Legend -->
  <line x1="560" y1="28" x2="575" y2="28" stroke="#d62728" stroke-width="1.5"/>
  <text x="578" y="32" class="legend-text" fill="#d62728">X</text>
  <line x1="600" y1="28" x2="615" y2="28" stroke="#1f77b4" stroke-width="1.5"/>
  <text x="618" y="32" class="legend-text" fill="#1f77b4">Y</text>
  <line x1="640" y1="28" x2="655" y2="28" stroke="#2ca02c" stroke-width="1.5"/>
  <text x="658" y="32" class="legend-text" fill="#2ca02c">Z</text>
  <!-- Cyan episode overlay -->
  <rect x="140" y="40" width="465" height="180" fill="cyan" opacity="0.12"/>
  <!-- 5 segment hatched overlays -->
  <rect x="150" y="42" width="40" height="176" fill="url(#wf-hatch)" stroke="#008080" stroke-width="1" stroke-dasharray="3,2" opacity="0.5"/>
  <rect x="250" y="42" width="40" height="176" fill="url(#wf-hatch)" stroke="#008080" stroke-width="1" stroke-dasharray="3,2" opacity="0.5"/>
  <rect x="350" y="42" width="40" height="176" fill="url(#wf-hatch)" stroke="#008080" stroke-width="1" stroke-dasharray="3,2" opacity="0.5"/>
  <rect x="450" y="42" width="40" height="176" fill="url(#wf-hatch)" stroke="#008080" stroke-width="1" stroke-dasharray="3,2" opacity="0.5"/>
  <rect x="550" y="42" width="40" height="176" fill="url(#wf-hatch)" stroke="#008080" stroke-width="1" stroke-dasharray="3,2" opacity="0.5"/>
  <!-- Scoring on segment 3 -->
  <rect x="350" y="42" width="40" height="176" fill="#ffd700" opacity="0.2"/>
  <rect x="350" y="42" width="40" height="176" fill="url(#wf-dots)"/>
  <rect x="350" y="42" width="40" height="176" fill="none" stroke="#b8860b" stroke-width="2"/>
  <!-- Signal traces -->
  <g clip-path="url(#wf-clip)">
    <polyline fill="none" stroke="#d62728" stroke-width="1" opacity="0.85" stroke-linejoin="round" points="50,124 52,125 54,123 56,126 58,127 60,123 62,125 64,123 66,125 68,125 70,126 72,127 74,124 76,125 78,123 80,126 82,125 84,126 86,125 88,123 90,124 92,124 94,123 96,127 98,123 100,126 102,124 104,126 106,124 108,126 110,123 112,125 114,125 116,123 118,124 120,124 122,124 124,123 126,126 128,123 130,127 132,123 134,127 136,125 138,123 140,124 130,124 132,124 134,124 136,125 138,127 140,125 142,126 144,126 146,126 148,127 150,123 152,123 154,126 156,124 158,124 160,127 162,126 163,123 164,124 165,120 166,119 167,112 168,111 169,109 170,107 171,107 172,110 173,115 174,116 175,119 176,124 177,124 178,123 179,123 181,127 183,124 185,125 187,127 189,127 191,125 193,125 195,127 197,127 199,126 230,127 232,127 234,126 236,126 238,124 240,123 242,124 244,123 246,123 248,124 250,123 252,126 254,125 256,124 258,123 260,126 262,123 263,125 264,124 265,121 266,117 267,112 268,112 269,106 270,106 271,108 272,110 273,115 274,116 275,121 276,122 277,124 278,126 279,123 281,123 283,124 285,127 287,126 289,126 291,123 293,127 295,126 297,127 299,126 330,125 332,127 334,127 336,127 338,126 340,124 342,126 344,125 346,125 348,123 350,126 352,126 354,126 356,127 358,127 360,126 362,126 363,126 364,121 365,119 366,119 367,114 368,109 369,110 370,107 371,108 372,111 373,115 374,116 375,122 376,122 377,123 378,126 379,125 381,126 383,127 385,126 387,127 389,124 391,123 393,127 395,125 397,123 399,127 430,126 432,124 434,127 436,126 438,123 440,126 442,125 444,125 446,126 448,124 450,124 452,125 454,125 456,126 458,123 460,124 462,125 463,123 464,121 465,121 466,119 467,113 468,109 469,106 470,106 471,109 472,111 473,116 474,119 475,119 476,123 477,125 478,125 479,125 481,125 483,124 485,124 487,127 489,126 491,125 493,125 495,124 497,124 499,124 530,124 532,124 534,123 536,127 538,127 540,124 542,127 544,124 546,124 548,124 550,124 552,125 554,124 556,127 558,124 560,125 562,124 563,126 564,124 565,121 566,116 567,113 568,111 569,109 570,107 571,107 572,109 573,114 574,116 575,120 576,123 577,125 578,124 579,125 581,124 583,127 585,126 587,126 589,126 591,124 593,125 595,127 597,125 599,127 610,126 612,123 614,125 616,127 618,127 620,127 622,125 624,124 626,124 628,127 630,126 632,125 634,125 636,124 638,123 640,127 642,123 644,125 646,124 648,123 650,125 652,125 654,125 656,123 658,124 660,125 662,126 664,124 666,123 668,123 670,123 672,127 674,126 676,127 678,124 680,125 682,127 684,124 686,126 688,125 690,126 692,125 694,125 696,125 698,123 700,125 702,123 704,125 706,126 708,123 710,127 712,126 714,125 716,123 718,123 720,124 722,126 724,125 726,126 728,124 730,125 732,126 734,126 736,125 738,126 740,125 742,127 744,125 746,127 748,126 750,124 752,127 754,126 756,125 758,126 760,127 762,127 764,127 766,124 768,126 770,123"/>
    <polyline fill="none" stroke="#1f77b4" stroke-width="1" opacity="0.85" stroke-linejoin="round" points="50,137 52,133 54,137 56,133 58,134 60,134 62,134 64,134 66,136 68,135 70,133 72,137 74,133 76,133 78,137 80,134 82,133 84,137 86,137 88,133 90,134 92,134 94,137 96,136 98,137 100,136 102,133 104,134 106,134 108,137 110,136 112,136 114,135 116,133 118,135 120,135 122,133 124,137 126,137 128,137 130,137 132,134 134,137 136,135 138,134 140,135 130,137 132,135 134,133 136,133 138,134 140,137 142,136 144,134 146,135 148,134 150,135 152,135 154,133 156,137 158,133 160,134 162,136 163,134 164,137 165,138 166,140 167,138 168,139 169,141 170,146 171,147 172,146 173,144 174,140 175,141 176,137 177,136 178,136 179,136 181,137 183,133 185,137 187,134 189,134 191,137 193,133 195,133 197,136 199,134 230,137 232,135 234,136 236,137 238,133 240,135 242,135 244,137 246,135 248,136 250,135 252,136 254,134 256,135 258,137 260,135 262,135 263,137 264,138 265,137 266,139 267,138 268,142 269,143 270,145 271,146 272,146 273,144 274,142 275,140 276,138 277,138 278,137 279,133 281,136 283,137 285,134 287,136 289,137 291,136 293,135 295,134 297,135 299,133 330,137 332,134 334,133 336,137 338,135 340,136 342,136 344,133 346,137 348,133 350,133 352,133 354,133 356,134 358,137 360,134 362,136 363,135 364,137 365,136 366,139 367,139 368,143 369,141 370,147 371,148 372,146 373,144 374,140 375,138 376,136 377,136 378,137 379,134 381,133 383,137 385,135 387,133 389,137 391,135 393,137 395,135 397,137 399,137 430,137 432,135 434,136 436,136 438,136 440,135 442,135 444,133 446,136 448,133 450,135 452,137 454,136 456,137 458,137 460,135 462,135 463,134 464,135 465,136 466,138 467,138 468,140 469,142 470,144 471,144 472,144 473,142 474,142 475,138 476,136 477,134 478,137 479,133 481,134 483,133 485,134 487,135 489,135 491,135 493,133 495,136 497,137 499,133 530,133 532,133 534,135 536,133 538,137 540,133 542,135 544,136 546,135 548,133 550,135 552,135 554,133 556,134 558,136 560,135 562,137 563,135 564,135 565,138 566,140 567,138 568,141 569,143 570,145 571,147 572,147 573,145 574,143 575,137 576,137 577,135 578,136 579,136 581,137 583,133 585,133 587,136 589,135 591,133 593,135 595,133 597,136 599,137 610,137 612,135 614,136 616,135 618,137 620,137 622,134 624,137 626,134 628,134 630,135 632,133 634,135 636,135 638,136 640,133 642,137 644,133 646,137 648,133 650,133 652,135 654,135 656,137 658,134 660,133 662,136 664,134 666,133 668,136 670,134 672,137 674,134 676,133 678,133 680,135 682,134 684,135 686,135 688,134 690,133 692,137 694,133 696,136 698,137 700,133 702,137 704,134 706,137 708,133 710,135 712,133 714,134 716,133 718,136 720,134 722,134 724,136 726,134 728,135 730,135 732,133 734,135 736,134 738,136 740,134 742,133 744,133 746,136 748,136 750,135 752,137 754,137 756,137 758,134 760,137 762,137 764,133 766,133 768,134 770,134"/>
    <polyline fill="none" stroke="#2ca02c" stroke-width="1" opacity="0.85" stroke-linejoin="round" points="50,143 52,140 54,143 56,144 58,140 60,142 62,143 64,141 66,140 68,140 70,140 72,144 74,143 76,142 78,141 80,142 82,144 84,144 86,140 88,141 90,144 92,142 94,140 96,140 98,143 100,140 102,144 104,140 106,143 108,142 110,143 112,142 114,140 116,143 118,144 120,143 122,141 124,144 126,144 128,142 130,141 132,142 134,140 136,141 138,144 140,143 130,144 132,141 134,143 136,141 138,140 140,141 142,141 144,143 146,140 148,140 150,143 152,141 154,143 156,140 158,144 160,143 162,143 163,144 164,142 165,144 166,141 167,139 168,132 169,130 170,131 171,130 172,135 173,138 174,139 175,142 176,144 177,143 178,142 179,140 181,144 183,144 185,144 187,141 189,140 191,143 193,143 195,142 197,143 199,141 230,144 232,142 234,143 236,141 238,142 240,142 242,140 244,141 246,143 248,140 250,142 252,144 254,143 256,140 258,144 260,140 262,143 263,142 264,143 265,141 266,138 267,136 268,134 269,131 270,130 271,129 272,134 273,136 274,138 275,142 276,142 277,142 278,141 279,140 281,140 283,140 285,140 287,144 289,141 291,144 293,141 295,144 297,143 299,144 330,141 332,140 334,141 336,142 338,141 340,143 342,140 344,142 346,141 348,143 350,140 352,144 354,140 356,141 358,144 360,140 362,142 363,143 364,141 365,143 366,142 367,139 368,132 369,133 370,128 371,131 372,134 373,139 374,142 375,142 376,143 377,141 378,143 379,144 381,144 383,143 385,144 387,140 389,144 391,141 393,144 395,141 397,144 399,142 430,144 432,140 434,141 436,141 438,142 440,144 442,144 444,140 446,143 448,140 450,141 452,141 454,141 456,144 458,142 460,144 462,143 463,141 464,141 465,141 466,141 467,136 468,133 469,131 470,130 471,132 472,135 473,136 474,139 475,142 476,143 477,142 478,143 479,142 481,141 483,141 485,140 487,143 489,140 491,143 493,141 495,142 497,143 499,140 530,140 532,144 534,142 536,141 538,144 540,143 542,142 544,140 546,142 548,143 550,140 552,140 554,140 556,144 558,143 560,142 562,144 563,144 564,141 565,143 566,139 567,139 568,133 569,132 570,130 571,131 572,133 573,138 574,141 575,143 576,144 577,142 578,141 579,144 581,140 583,141 585,141 587,143 589,141 591,144 593,142 595,142 597,140 599,142 610,143 612,143 614,144 616,140 618,140 620,142 622,140 624,140 626,142 628,141 630,141 632,140 634,144 636,143 638,140 640,142 642,142 644,143 646,141 648,142 650,143 652,142 654,140 656,144 658,143 660,140 662,140 664,143 666,143 668,141 670,143 672,141 674,141 676,140 678,140 680,144 682,141 684,141 686,142 688,144 690,144 692,143 694,141 696,141 698,144 700,141 702,140 704,142 706,141 708,144 710,143 712,144 714,142 716,143 718,141 720,141 722,142 724,144 726,140 728,140 730,141 732,140 734,143 736,144 738,141 740,140 742,144 744,142 746,144 748,144 750,141 752,140 754,140 756,140 758,144 760,142 762,141 764,142 766,140 768,143 770,142"/>
  </g>
  <line x1="50" y1="220" x2="770" y2="220" stroke="#ccc" stroke-width="0.5"/>
  <!-- Workflow steps legend -->
  <rect x="50" y="240" width="700" height="145" fill="white" rx="4" stroke="#ddd"/>
  <circle cx="80" cy="268" r="12" fill="#800000" opacity="0.9"/>
  <text x="76" y="272" font-size="11" font-weight="bold" fill="white">1</text>
  <text x="100" y="265" class="step-label">Episode</text>
  <text x="100" y="279" class="desc">Box-select from first to last disturbance, click activity type</text>
  <circle cx="80" cy="308" r="12" fill="#008080" opacity="0.9"/>
  <text x="76" y="312" font-size="11" font-weight="bold" fill="white">2</text>
  <text x="100" y="305" class="step-label">Segments</text>
  <text x="100" y="319" class="desc">Select each individual repetition, click Segment (diagonal stripes)</text>
  <circle cx="80" cy="348" r="12" fill="#b8860b" opacity="0.9"/>
  <text x="76" y="352" font-size="11" font-weight="bold" fill="white">3</text>
  <text x="100" y="345" class="step-label">Scoring</text>
  <text x="100" y="359" class="desc">Select the cleanest repetition, click Scoring (gold dot pattern)</text>
  <circle cx="500" cy="268" r="12" fill="#666" opacity="0.9"/>
  <text x="496" y="272" font-size="11" font-weight="bold" fill="white">4</text>
  <text x="520" y="265" class="step-label">Review (optional)</text>
  <text x="520" y="279" class="desc">Flag ambiguous signals, click Review + add notes</text>
  <circle cx="500" cy="308" r="12" fill="#666" opacity="0.9"/>
  <text x="496" y="312" font-size="11" font-weight="bold" fill="white">5</text>
  <text x="520" y="305" class="step-label">Export</text>
  <text x="520" y="319" class="desc">Click Export to save annotations to disk</text>
</svg>